<svg width="950.622" height="566.438" viewBox="0 0 712.967 424.828" xmlns="http://www.w3.org/2000/svg" xmlns:xlink="http://www.w3.org/1999/xlink" stroke-linejoin="round" overflow="hidden"><defs></defs><defs><clipPath id="p48a4453441"><rect x="50.7666" y="7.2" width="655" height="379.96"/></clipPath></defs><g id="figure_1"><g id="patch_1"><path d="M0 424.828 712.967 424.828 712.967 0 0 0Z" fill="#FFFFFF"/></g><g id="axes_1"><g id="patch_2"><path d="M50.7666 387.16 705.767 387.16 705.767 7.2 50.7666 7.2Z" fill="#EAEAF2"/></g><g id="matplotlib.axis_1"><g id="xtick_1"><g id="line2d_1"><path d="M80.5393 387.16 80.5393 7.2" stroke="#FFFFFF" stroke-linecap="round" stroke-opacity="0.3" fill="none" clip-path="url(#p48a4453441)"/></g><g id="line2d_2"></g><g id="text_1"><g fill="#262626" transform="matrix(0.1 0 0 -0.1 74.9784 401.318)"><defs><path d="M2384 0 1822 0 1822 3584C1686.67 3455.33 1509 3326.33 1289 3197 1069 3067.67 871.667 2970.67 697 2906L697 3450C1011.67 3598 1286.67 3777 1522 3987 1757.33 4197.67 1924 4402 2022 4600L2384 4600 2384 0Z" id="ArialMT-31" transform="scale(0.015625 0.015625)"/><path d="M266 2259C266 2801 321.667 3237 433 3567 544.333 3897.67 709.667 4152.33 929 4331 1149 4510.33 1425.67 4600 1759 4600 2005 4600 2220.67 4550.33 2406 4451 2591.33 4352.33 2744.33 4209.67 2865 4023 2986.33 3837 3081.33 3610 3150 3342 3218.67 3074.67 3253 2713.67 3253 2259 3253 1721.67 3197.67 1288 3087 958 2977 628 2812 372.667 2592 192 2372.67 12 2095-78 1759-78 1317.67-78 971 80.3333 719 397 417 778.333 266 1399 266 2259ZM844 2259C844 1507 932 1006.33 1108 757 1284 508.333 1501 384 1759 384 2017.67 384 2235 509 2411 759 2587 1009 2675 1509 2675 2259 2675 3013.67 2587 3514.67 2411 3762 2235 4010 2015.67 4134 1753 4134 1495 4134 1288.67 4024.67 1134 3806 940.667 3527.33 844 3011.67 844 2259Z" id="ArialMT-30" transform="scale(0.015625 0.015625)"/></defs><use width="100%" height="100%" xlink:href="#ArialMT-31"></use><use width="100%" height="100%" xlink:href="#ArialMT-30" transform="translate(55.6152 0)"></use></g></g></g><g id="xtick_2"><g id="line2d_3"><path d="M165.604 387.16 165.604 7.2" stroke="#FFFFFF" stroke-linecap="round" stroke-opacity="0.3" fill="none" clip-path="url(#p48a4453441)"/></g><g id="line2d_4"></g><g id="text_2"><g fill="#262626" transform="matrix(0.1 0 0 -0.1 160.043 401.318)"><defs><path d="M3222 541 3222 0 194 0C190 135.333 211.667 265.667 259 391 336.333 597 459.667 800 629 1000 799 1200 1044.67 1431.33 1366 1694 1864 2102 2200.33 2425.33 2375 2664 2550.33 2902.67 2638 3128.33 2638 3341 2638 3563.67 2558 3751.33 2398 3904 2238.67 4057.33 2031 4134 1775 4134 1504.33 4134 1287.67 4052.67 1125 3890 962.333 3728 880 3503.33 878 3216L300 3275C339.333 3706.33 488 4035 746 4261 1004.67 4487 1352 4600 1788 4600 2227.33 4600 2575 4478 2831 4234 3087.67 3990.67 3216 3688.67 3216 3328 3216 3144.67 3178.33 2964.33 3103 2787 3028.33 2610.33 2904 2424 2730 2228 2556 2032 2267 1763.33 1863 1422 1525 1138.67 1308 946.333 1212 845 1116.67 744.333 1037.67 643 975 541L3222 541Z" id="ArialMT-32" transform="scale(0.015625 0.015625)"/></defs><use width="100%" height="100%" xlink:href="#ArialMT-32"></use><use width="100%" height="100%" xlink:href="#ArialMT-30" transform="translate(55.6152 0)"></use></g></g></g><g id="xtick_3"><g id="line2d_5"><path d="M250.669 387.16 250.669 7.2" stroke="#FFFFFF" stroke-linecap="round" stroke-opacity="0.3" fill="none" clip-path="url(#p48a4453441)"/></g><g id="line2d_6"></g><g id="text_3"><g fill="#262626" transform="matrix(0.1 0 0 -0.1 245.108 401.318)"><defs><path d="M269 1209 831 1284C895.667 965.333 1005.67 735.667 1161 595 1316.33 454.333 1505.33 384 1728 384 1992.67 384 2216 475.667 2398 659 2580.67 842.333 2672 1069.67 2672 1341 2672 1599 2587.67 1811.67 2419 1979 2250.33 2147 2035.67 2231 1775 2231 1669 2231 1536.67 2210.33 1378 2169L1441 2663C1478.33 2658.33 1508.33 2656 1531 2656 1771 2656 1986.67 2718.33 2178 2843 2370 2968.33 2466 3161.33 2466 3422 2466 3628 2396 3798.67 2256 3934 2116.67 4070 1936.67 4138 1716 4138 1497.33 4138 1315 4069 1169 3931 1023 3793.67 929.333 3587.67 888 3313L325 3413C393.667 3789.67 549.667 4081.67 793 4289 1037 4496.33 1340.33 4600 1703 4600 1953 4600 2183 4546.33 2393 4439 2603.67 4331.67 2764.67 4185.33 2876 4000 2988 3814.67 3044 3617.67 3044 3409 3044 3211.67 2990.67 3031.67 2884 2869 2778 2706.33 2621 2577 2413 2481 2683.67 2419 2894 2289.33 3044 2092 3194 1895.33 3269 1649 3269 1353 3269 953 3123 614 2831 336 2539.67 58 2171-81 1725-81 1323-81 989 38.6667 723 278 457.667 518 306.333 828.333 269 1209Z" id="ArialMT-33" transform="scale(0.015625 0.015625)"/></defs><use width="100%" height="100%" xlink:href="#ArialMT-33"></use><use width="100%" height="100%" xlink:href="#ArialMT-30" transform="translate(55.6152 0)"></use></g></g></g><g id="xtick_4"><g id="line2d_7"><path d="M335.734 387.16 335.734 7.2" stroke="#FFFFFF" stroke-linecap="round" stroke-opacity="0.3" fill="none" clip-path="url(#p48a4453441)"/></g><g id="line2d_8"></g><g id="text_4"><g fill="#262626" transform="matrix(0.1 0 0 -0.1 330.173 401.318)"><defs><path d="M2069 0 2069 1097 81 1097 81 1613 2172 4581 2631 4581 2631 1613 3250 1613 3250 1097 2631 1097 2631 0 2069 0ZM2069 1613 2069 3678 634 1613 2069 1613Z" id="ArialMT-34" transform="scale(0.015625 0.015625)"/></defs><use width="100%" height="100%" xlink:href="#ArialMT-34"></use><use width="100%" height="100%" xlink:href="#ArialMT-30" transform="translate(55.6152 0)"></use></g></g></g><g id="xtick_5"><g id="line2d_9"><path d="M420.799 387.16 420.799 7.2" stroke="#FFFFFF" stroke-linecap="round" stroke-opacity="0.3" fill="none" clip-path="url(#p48a4453441)"/></g><g id="line2d_10"></g><g id="text_5"><g fill="#262626" transform="matrix(0.1 0 0 -0.1 415.238 401.318)"><defs><path d="M266 1200 856 1250C900 962.667 1001.67 746.333 1161 601 1320.33 456.333 1512.67 384 1738 384 2008.67 384 2237.67 486 2425 690 2612.33 894.667 2706 1165.67 2706 1503 2706 1823.67 2616 2076.67 2436 2262 2256 2448 2020 2541 1728 2541 1546.67 2541 1383 2499.67 1237 2417 1091.67 2335 977.333 2228.33 894 2097L366 2166 809 4519 3088 4519 3088 3981 1259 3981 1013 2750C1287.67 2942 1576 3038 1878 3038 2278 3038 2615.33 2899.33 2890 2622 3165.33 2344.67 3303 1988.33 3303 1553 3303 1138.33 3182.33 780 2941 478 2647 107.333 2246-78 1738-78 1321.33-78 981 38.6667 717 272 453.667 505.333 303.333 814.667 266 1200Z" id="ArialMT-35" transform="scale(0.015625 0.015625)"/></defs><use width="100%" height="100%" xlink:href="#ArialMT-35"></use><use width="100%" height="100%" xlink:href="#ArialMT-30" transform="translate(55.6152 0)"></use></g></g></g><g id="xtick_6"><g id="line2d_11"><path d="M505.864 387.16 505.864 7.2" stroke="#FFFFFF" stroke-linecap="round" stroke-opacity="0.3" fill="none" clip-path="url(#p48a4453441)"/></g><g id="line2d_12"></g><g id="text_6"><g fill="#262626" transform="matrix(0.1 0 0 -0.1 500.303 401.318)"><defs><path d="M3184 3459 2625 3416C2575 3636.67 2504.33 3797 2413 3897 2260.33 4057.67 2072.67 4138 1850 4138 1670.67 4138 1513.33 4088 1378 3988 1201.33 3858.67 1061.67 3670 959 3422 857 3174 804 2821 800 2363 935.333 2569 1101 2722 1297 2822 1493 2922 1698.33 2972 1913 2972 2287.67 2972 2606.67 2834 2870 2558 3134 2282 3266 1925.33 3266 1488 3266 1200 3204 932.667 3080 686 2956 439.333 2785.67 250.333 2569 119 2352.33-12.3333 2106.33-78 1831-78 1362.33-78 980 94.3333 684 439 388.667 783.667 241 1352 241 2144 241 3029.33 404.333 3673 731 4075 1016.33 4425 1400.67 4600 1884 4600 2244.67 4600 2540 4499 2770 4297 3000.67 4095 3138.67 3815.67 3184 3459ZM888 1484C888 1290.67 929 1105.33 1011 928 1093 751.333 1208 616.333 1356 523 1504 430.333 1659.33 384 1822 384 2059.33 384 2263.33 479.667 2434 671 2605.33 863 2691 1123.67 2691 1453 2691 1769.67 2606.33 2019 2437 2201 2268.33 2383.67 2056 2475 1800 2475 1546 2475 1330.33 2383.67 1153 2201 976.333 2019 888 1780 888 1484Z" id="ArialMT-36" transform="scale(0.015625 0.015625)"/></defs><use width="100%" height="100%" xlink:href="#ArialMT-36"></use><use width="100%" height="100%" xlink:href="#ArialMT-30" transform="translate(55.6152 0)"></use></g></g></g><g id="xtick_7"><g id="line2d_13"><path d="M590.929 387.16 590.929 7.2" stroke="#FFFFFF" stroke-linecap="round" stroke-opacity="0.3" fill="none" clip-path="url(#p48a4453441)"/></g><g id="line2d_14"></g><g id="text_7"><g fill="#262626" transform="matrix(0.1 0 0 -0.1 585.368 401.318)"><defs><path d="M303 3981 303 4522 3269 4522 3269 4084C2977 3774 2687.67 3361.67 2401 2847 2115 2332.33 1894 1803 1738 1259 1625.33 875.667 1553.33 456 1522 0L944 0C950 360.667 1020.67 796 1156 1306 1291.33 1816.67 1485.67 2309 1739 2783 1992.33 3257 2261.67 3656.33 2547 3981L303 3981Z" id="ArialMT-37" transform="scale(0.015625 0.015625)"/></defs><use width="100%" height="100%" xlink:href="#ArialMT-37"></use><use width="100%" height="100%" xlink:href="#ArialMT-30" transform="translate(55.6152 0)"></use></g></g></g><g id="xtick_8"><g id="line2d_15"><path d="M675.994 387.16 675.994 7.2" stroke="#FFFFFF" stroke-linecap="round" stroke-opacity="0.3" fill="none" clip-path="url(#p48a4453441)"/></g><g id="line2d_16"></g><g id="text_8"><g fill="#262626" transform="matrix(0.1 0 0 -0.1 670.433 401.318)"><defs><path d="M1131 2484C897.667 2570 724.667 2692 612 2850 500 3008.67 444 3198.33 444 3419 444 3752.33 563.667 4032.33 803 4259 1043 4486.33 1361.67 4600 1759 4600 2159 4600 2481 4483.67 2725 4251 2969 4019 3091 3736.33 3091 3403 3091 3190.33 3035 3005.33 2923 2848 2811.67 2691.33 2642.67 2570 2416 2484 2697.33 2392.67 2911.33 2244.67 3058 2040 3204.67 1836 3278 1592.33 3278 1309 3278 917.667 3139.33 588.667 2862 322 2585.33 55.3333 2221-78 1769-78 1317-78 952.333 55.6667 675 323 397.667 591 259 925 259 1325 259 1623 334.667 1872.33 486 2073 637.333 2274.33 852.333 2411.33 1131 2484ZM1019 3438C1019 3221.33 1088.67 3044 1228 2906 1368 2768.67 1549.33 2700 1772 2700 1988.67 2700 2166.33 2768 2305 2904 2443.67 3040.67 2513 3208 2513 3406 2513 3612.67 2441.33 3786.33 2298 3927 2155.33 4067.67 1978 4138 1766 4138 1551.33 4138 1373 4069 1231 3931 1089.67 3793.67 1019 3629.33 1019 3438ZM838 1322C838 1161.33 876 1006 952 856 1028 706 1141 589.667 1291 507 1441 425 1602.33 384 1775 384 2043.67 384 2265.33 470.333 2440 643 2615.33 816.333 2703 1036.33 2703 1303 2703 1573.67 2613 1797.67 2433 1975 2253 2152.33 2027.33 2241 1756 2241 1491.33 2241 1272 2153.33 1098 1978 924.667 1803.33 838 1584.67 838 1322Z" id="ArialMT-38" transform="scale(0.015625 0.015625)"/></defs><use width="100%" height="100%" xlink:href="#ArialMT-38"></use><use width="100%" height="100%" xlink:href="#ArialMT-30" transform="translate(55.6152 0)"></use></g></g></g><g id="text_9"><g fill="#262626" transform="matrix(0.11 0 0 -0.11 338.235 415.313)"><defs><path d="M475 0 475 4581 1375 4581 3250 1522 3250 4581 4109 4581 4109 0 3181 0 1334 2988 1334 0 475 0Z" id="Arial-BoldMT-4e" transform="scale(0.015625 0.015625)"/><path d="M2644 0 2644 497C2523.33 319.667 2364.33 180 2167 78 1970.33-24 1762.67-75 1544-75 1320.67-75 1120.33-26 943 72 766.333 170 638.333 307.333 559 484 480.333 661.333 441 906.333 441 1219L441 3319 1319 3319 1319 1794C1319 1327.33 1335 1041.33 1367 936 1399.67 830.667 1458.67 747.333 1544 686 1629.33 624.667 1737.67 594 1869 594 2019 594 2153.33 635 2272 717 2390.67 799.667 2471.67 901.667 2515 1023 2559 1145 2581 1443.67 2581 1919L2581 3319 3459 3319 3459 0 2644 0Z" id="Arial-BoldMT-75" transform="scale(0.015625 0.015625)"/><path d="M394 3319 1203 3319 1203 2866C1493 3218 1838 3394 2238 3394 2450 3394 2634 3350 2790 3262 2946.67 3174.67 3075 3042.67 3175 2866 3321 3042.67 3478.33 3174.67 3647 3262 3815.67 3350 3996 3394 4188 3394 4431.33 3394 4637.33 3344.33 4806 3245 4974.67 3146.33 5100.67 3001 5184 2809 5244.67 2667.67 5275 2438.67 5275 2122L5275 0 4397 0 4397 1897C4397 2226.33 4366.67 2438.67 4306 2534 4224.67 2659.33 4099.67 2722 3931 2722 3808.33 2722 3692.67 2684.33 3584 2609 3476 2534.33 3398 2424.67 3350 2280 3302 2135.33 3278 1906.67 3278 1594L3278 0 2400 0 2400 1819C2400 2141.67 2384.33 2349.67 2353 2443 2321.67 2537 2273 2607 2207 2653 2141.67 2699 2053 2722 1941 2722 1805.67 2722 1683.67 2685.33 1575 2612 1467 2539.33 1389.33 2434.33 1342 2297 1295.33 2159.67 1272 1931.67 1272 1613L1272 0 394 0 394 3319Z" id="Arial-BoldMT-6d" transform="scale(0.015625 0.015625)"/><path d="M422 0 422 4581 1300 4581 1300 2931C1570.67 3239.67 1891.67 3394 2263 3394 2667 3394 3001.33 3247.67 3266 2955 3530.67 2662.33 3663 2242 3663 1694 3663 1127.33 3528 690.667 3258 384 2988 78 2660.33-75 2275-75 2085.67-75 1898.67-27.6667 1714 67 1530 161.667 1371.33 302 1238 488L1238 0 422 0ZM1294 1731C1294 1387.67 1348 1133.67 1456 969 1608 735.667 1810.33 619 2063 619 2256.33 619 2421.33 701.667 2558 867 2694.67 1033 2763 1294 2763 1650 2763 2029.33 2694 2302.67 2556 2470 2418.67 2638 2242.67 2722 2028 2722 1818 2722 1643 2640 1503 2476 1363.67 2312.67 1294 2064.33 1294 1731Z" id="Arial-BoldMT-62" transform="scale(0.015625 0.015625)"/><path d="M2381 1056 3256 909C3144 588.333 2966.33 344 2723 176 2480.33 8.66667 2177-75 1813-75 1235.67-75 808.333 113.667 531 491 312.333 793 203 1174 203 1634 203 2184 346.667 2614.67 634 2926 922 3238 1285.67 3394 1725 3394 2219 3394 2608.67 3231 2894 2905 3179.33 2579 3315.67 2079.33 3303 1406L1103 1406C1109.67 1146 1180.67 943.333 1316 798 1451.33 653.333 1620 581 1822 581 1959.33 581 2074.67 618.333 2168 693 2262 768.333 2333 889.333 2381 1056ZM2431 1944C2425 2198 2359.33 2391 2234 2523 2109.33 2655.67 1957.33 2722 1778 2722 1586.67 2722 1428.33 2652.33 1303 2513 1178.33 2373 1117 2183.33 1119 1944L2431 1944Z" id="Arial-BoldMT-65" transform="scale(0.015625 0.015625)"/><path d="M1300 0 422 0 422 3319 1238 3319 1238 2847C1377.33 3069.67 1502.67 3216.33 1614 3287 1725.33 3358.33 1852 3394 1994 3394 2194 3394 2386.67 3338.67 2572 3228L2300 2463C2152 2558.33 2014.67 2606 1888 2606 1764.67 2606 1660.33 2572 1575 2504 1489.67 2436.67 1422.33 2314.33 1373 2137 1324.33 1960.33 1300 1589.67 1300 1025L1300 0Z" id="Arial-BoldMT-72" transform="scale(0.015625 0.015625)"/><path d="" id="Arial-BoldMT-20" transform="scale(0.015625 0.015625)"/><path d="M256 1706C256 1998 328 2280.33 472 2553 616 2826.33 819.667 3034.67 1083 3178 1346.33 3322 1640.67 3394 1966 3394 2468 3394 2879.33 3231 3200 2905 3520.67 2579 3681 2167 3681 1669 3681 1167 3519 750.667 3195 420 2871 90 2463.33-75 1972-75 1668-75 1378-6.33333 1102 131 826 269 616 470.667 472 736 328 1001.33 256 1324.67 256 1706ZM1156 1659C1156 1330.33 1234 1078.33 1390 903 1546.67 728.333 1739.67 641 1969 641 2198.33 641 2390.33 728.333 2545 903 2700.33 1078.33 2778 1332.67 2778 1666 2778 1990.67 2700.33 2240.33 2545 2415 2390.33 2590.33 2198.33 2678 1969 2678 1739.67 2678 1546.67 2590.33 1390 2415 1234 2240.33 1156 1988.33 1156 1659Z" id="Arial-BoldMT-6f" transform="scale(0.015625 0.015625)"/><path d="M75 3319 563 3319 563 3569C563 3848.33 592.667 4056.67 652 4194 711.333 4331.33 820.667 4443 980 4529 1139.33 4615.67 1340.67 4659 1584 4659 1834 4659 2079 4621.67 2319 4547L2200 3934C2060.67 3967.33 1926.33 3984 1797 3984 1669.67 3984 1578.33 3954.33 1523 3895 1468.33 3835.67 1441 3721.67 1441 3553L1441 3319 2097 3319 2097 2628 1441 2628 1441 0 563 0 563 2628 75 2628 75 3319Z" id="Arial-BoldMT-66" transform="scale(0.015625 0.015625)"/><path d="M2119 4581 3041 4581 3041 1681C3041 1302.33 3007.67 1010.67 2941 806 2851 539.333 2688.33 325.333 2453 164 2217.67 2.66667 1907.33-78 1522-78 1070-78 722 48.3333 478 301 234.667 554.333 111.667 926 109 1416L981 1516C991.667 1253.33 1030.33 1067.67 1097 959 1197 795 1349 713 1553 713 1759.67 713 1905.67 771.667 1991 889 2076.33 1007 2119 1251.33 2119 1622L2119 4581Z" id="Arial-BoldMT-4a" transform="scale(0.015625 0.015625)"/><path d="M459 3769 459 4581 1338 4581 1338 3769 459 3769ZM459 0 459 3319 1338 3319 1338 0 459 0Z" id="Arial-BoldMT-69" transform="scale(0.015625 0.015625)"/><path d="M378-219 1381-341C1397.67-457.667 1436.33-537.667 1497-581 1580.33-643.667 1711.67-675 1891-675 2119.67-675 2291.33-640.667 2406-572 2483.33-526 2541.67-452 2581-350 2608.33-277.333 2622-143 2622 53L2622 538C2359.33 179.333 2028 0 1628 0 1182 0 829 188.667 569 566 365 864 263 1234.67 263 1678 263 2234.67 396.667 2659.67 664 2953 932 3247 1265 3394 1663 3394 2073 3394 2411.33 3213.67 2678 2853L2678 3319 3500 3319 3500 341C3500-51 3467.67-343.667 3403-537 3338.33-731 3247.67-883 3131-993 3014.33-1103.67 2858.67-1190.33 2664-1253 2469.33-1315.67 2223-1347 1925-1347 1362.33-1347 963.333-1250.67 728-1058 492.667-865.333 375-621 375-325 375-295.667 376-260.333 378-219ZM1163 1728C1163 1376 1231 1118 1367 954 1503.67 790.667 1672 709 1872 709 2086.67 709 2268 793 2416 961 2564 1129 2638 1377.33 2638 1706 2638 2050 2567 2305.33 2425 2472 2283.67 2638.67 2104.67 2722 1888 2722 1677.33 2722 1503.67 2640 1367 2476 1231 2312.67 1163 2063.33 1163 1728Z" id="Arial-BoldMT-67" transform="scale(0.015625 0.015625)"/><path d="M150 947 1031 1081C1069 910.333 1145 780.667 1259 692 1373.67 603.333 1534.33 559 1741 559 1967.67 559 2138.33 600.667 2253 684 2330.33 742.667 2369 821 2369 919 2369 985.667 2348 1040.67 2306 1084 2262.67 1126 2165 1164.67 2013 1200 1304.33 1356 855.333 1498.67 666 1628 403.333 1807.33 272 2056.33 272 2375 272 2662.33 385.333 2904 612 3100 839.333 3296 1191.67 3394 1669 3394 2123 3394 2460.33 3320 2681 3172 2902.33 3024 3054.67 2805.33 3138 2516L2309 2363C2273.67 2491.67 2206.33 2590.33 2107 2659 2008.33 2728.33 1867.33 2763 1684 2763 1453.33 2763 1288 2730.67 1188 2666 1121.33 2620 1088 2560.67 1088 2488 1088 2425.33 1117 2372 1175 2328 1254.33 2270 1527.67 2187.67 1995 2081 2463 1975 2789.67 1845 2975 1691 3158.33 1534.33 3250 1316.67 3250 1038 3250 733.333 3123 471.667 2869 253 2615 34.3333 2239-75 1741-75 1289-75 931 16.6667 667 200 403.667 383.333 231.333 632.333 150 947Z" id="Arial-BoldMT-73" transform="scale(0.015625 0.015625)"/></defs><use width="100%" height="100%" xlink:href="#Arial-BoldMT-4e"></use><use width="100%" height="100%" xlink:href="#Arial-BoldMT-75" transform="translate(72.2168 0)"></use><use width="100%" height="100%" xlink:href="#Arial-BoldMT-6d" transform="translate(133.301 0)"></use><use width="100%" height="100%" xlink:href="#Arial-BoldMT-62" transform="translate(222.217 0)"></use><use width="100%" height="100%" xlink:href="#Arial-BoldMT-65" transform="translate(283.301 0)"></use><use width="100%" height="100%" xlink:href="#Arial-BoldMT-72" transform="translate(338.916 0)"></use><use width="100%" height="100%" xlink:href="#Arial-BoldMT-20" transform="translate(377.832 0)"></use><use width="100%" height="100%" xlink:href="#Arial-BoldMT-6f" transform="translate(405.615 0)"></use><use width="100%" height="100%" xlink:href="#Arial-BoldMT-66" transform="translate(466.699 0)"></use><use width="100%" height="100%" xlink:href="#Arial-BoldMT-20" transform="translate(500 0)"></use><use width="100%" height="100%" xlink:href="#Arial-BoldMT-4a" transform="translate(527.783 0)"></use><use width="100%" height="100%" xlink:href="#Arial-BoldMT-69" transform="translate(583.398 0)"></use><use width="100%" height="100%" xlink:href="#Arial-BoldMT-67" transform="translate(611.182 0)"></use><use width="100%" height="100%" xlink:href="#Arial-BoldMT-73" transform="translate(672.266 0)"></use></g></g></g><g id="matplotlib.axis_2"><g id="ytick_1"><g id="line2d_17"><path d="M50.7666 377.286 705.767 377.286" stroke="#FFFFFF" stroke-linecap="round" stroke-opacity="0.3" fill="none" clip-path="url(#p48a4453441)"/></g><g id="line2d_18"></g><g id="text_10"><g fill="#262626" transform="matrix(0.1 0 0 -0.1 38.2056 380.865)"><use width="100%" height="100%" xlink:href="#ArialMT-30"></use></g></g></g><g id="ytick_2"><g id="line2d_19"><path d="M50.7666 326.448 705.767 326.448" stroke="#FFFFFF" stroke-linecap="round" stroke-opacity="0.3" fill="none" clip-path="url(#p48a4453441)"/></g><g id="line2d_20"></g><g id="text_11"><g fill="#262626" transform="matrix(0.1 0 0 -0.1 27.0837 330.027)"><use width="100%" height="100%" xlink:href="#ArialMT-35"></use><use width="100%" height="100%" xlink:href="#ArialMT-30" transform="translate(55.6152 0)"></use><use width="100%" height="100%" xlink:href="#ArialMT-30" transform="translate(111.23 0)"></use></g></g></g><g id="ytick_3"><g id="line2d_21"><path d="M50.7666 275.61 705.767 275.61" stroke="#FFFFFF" stroke-linecap="round" stroke-opacity="0.3" fill="none" clip-path="url(#p48a4453441)"/></g><g id="line2d_22"></g><g id="text_12"><g fill="#262626" transform="matrix(0.1 0 0 -0.1 21.5228 279.189)"><use width="100%" height="100%" xlink:href="#ArialMT-31"></use><use width="100%" height="100%" xlink:href="#ArialMT-30" transform="translate(55.6152 0)"></use><use width="100%" height="100%" xlink:href="#ArialMT-30" transform="translate(111.23 0)"></use><use width="100%" height="100%" xlink:href="#ArialMT-30" transform="translate(166.846 0)"></use></g></g></g><g id="ytick_4"><g id="line2d_23"><path d="M50.7666 224.772 705.767 224.772" stroke="#FFFFFF" stroke-linecap="round" stroke-opacity="0.3" fill="none" clip-path="url(#p48a4453441)"/></g><g id="line2d_24"></g><g id="text_13"><g fill="#262626" transform="matrix(0.1 0 0 -0.1 21.5228 228.351)"><use width="100%" height="100%" xlink:href="#ArialMT-31"></use><use width="100%" height="100%" xlink:href="#ArialMT-35" transform="translate(55.6152 0)"></use><use width="100%" height="100%" xlink:href="#ArialMT-30" transform="translate(111.23 0)"></use><use width="100%" height="100%" xlink:href="#ArialMT-30" transform="translate(166.846 0)"></use></g></g></g><g id="ytick_5"><g id="line2d_25"><path d="M50.7666 173.935 705.767 173.935" stroke="#FFFFFF" stroke-linecap="round" stroke-opacity="0.3" fill="none" clip-path="url(#p48a4453441)"/></g><g id="line2d_26"></g><g id="text_14"><g fill="#262626" transform="matrix(0.1 0 0 -0.1 21.5228 177.513)"><use width="100%" height="100%" xlink:href="#ArialMT-32"></use><use width="100%" height="100%" xlink:href="#ArialMT-30" transform="translate(55.6152 0)"></use><use width="100%" height="100%" xlink:href="#ArialMT-30" transform="translate(111.23 0)"></use><use width="100%" height="100%" xlink:href="#ArialMT-30" transform="translate(166.846 0)"></use></g></g></g><g id="ytick_6"><g id="line2d_27"><path d="M50.7666 123.097 705.767 123.097" stroke="#FFFFFF" stroke-linecap="round" stroke-opacity="0.3" fill="none" clip-path="url(#p48a4453441)"/></g><g id="line2d_28"></g><g id="text_15"><g fill="#262626" transform="matrix(0.1 0 0 -0.1 21.5228 126.675)"><use width="100%" height="100%" xlink:href="#ArialMT-32"></use><use width="100%" height="100%" xlink:href="#ArialMT-35" transform="translate(55.6152 0)"></use><use width="100%" height="100%" xlink:href="#ArialMT-30" transform="translate(111.23 0)"></use><use width="100%" height="100%" xlink:href="#ArialMT-30" transform="translate(166.846 0)"></use></g></g></g><g id="ytick_7"><g id="line2d_29"><path d="M50.7666 72.2586 705.767 72.2586" stroke="#FFFFFF" stroke-linecap="round" stroke-opacity="0.3" fill="none" clip-path="url(#p48a4453441)"/></g><g id="line2d_30"></g><g id="text_16"><g fill="#262626" transform="matrix(0.1 0 0 -0.1 21.5228 75.8375)"><use width="100%" height="100%" xlink:href="#ArialMT-33"></use><use width="100%" height="100%" xlink:href="#ArialMT-30" transform="translate(55.6152 0)"></use><use width="100%" height="100%" xlink:href="#ArialMT-30" transform="translate(111.23 0)"></use><use width="100%" height="100%" xlink:href="#ArialMT-30" transform="translate(166.846 0)"></use></g></g></g><g id="ytick_8"><g id="line2d_31"><path d="M50.7666 21.4206 705.767 21.4206" stroke="#FFFFFF" stroke-linecap="round" stroke-opacity="0.3" fill="none" clip-path="url(#p48a4453441)"/></g><g id="line2d_32"></g><g id="text_17"><g fill="#262626" transform="matrix(0.1 0 0 -0.1 21.5228 24.9995)"><use width="100%" height="100%" xlink:href="#ArialMT-33"></use><use width="100%" height="100%" xlink:href="#ArialMT-35" transform="translate(55.6152 0)"></use><use width="100%" height="100%" xlink:href="#ArialMT-30" transform="translate(111.23 0)"></use><use width="100%" height="100%" xlink:href="#ArialMT-30" transform="translate(166.846 0)"></use></g></g></g><g id="text_18"><g fill="#262626" transform="matrix(6.73556e-18 -0.11 -0.11 -6.73556e-18 15.2077 287.306)"><defs><path d="M278 2263C278 2729.67 348 3121.33 488 3438 592 3671.33 734 3880.67 914 4066 1094 4251.33 1291.33 4388.67 1506 4478 1791.33 4598.67 2120.67 4659 2494 4659 3168.67 4659 3708.67 4449.67 4114 4031 4519.33 3612.33 4722 3030 4722 2284 4722 1544.67 4521 966 4119 548 3717 130.667 3179.33-78 2506-78 1824.67-78 1283 129.667 881 545 479 961 278 1533.67 278 2263ZM1231 2294C1231 1775.33 1350.67 1382 1590 1114 1830 846.667 2134.33 713 2503 713 2871.67 713 3174.33 845.667 3411 1111 3647.67 1376.33 3766 1774.67 3766 2306 3766 2831.33 3650.67 3223 3420 3481 3190 3739.67 2884.33 3869 2503 3869 2121.67 3869 1814.33 3738 1581 3476 1347.67 3214.67 1231 2820.67 1231 2294Z" id="Arial-BoldMT-4f" transform="scale(0.015625 0.015625)"/><path d="M434 3319 1253 3319 1253 2831C1359.67 2997.67 1503.33 3133 1684 3237 1865.33 3341.67 2066.67 3394 2288 3394 2673.33 3394 3000.33 3243 3269 2941 3537.67 2639 3672 2218 3672 1678 3672 1124 3536.33 693.333 3265 386 2994.33 78.6667 2666.33-75 2281-75 2097.67-75 1931.33-38.6667 1782 34 1633.33 107.333 1477 232.333 1313 409L1313-1263 434-1263 434 3319ZM1303 1716C1303 1342.67 1377 1067 1525 889 1673 711 1853.33 622 2066 622 2270 622 2439.67 703.667 2575 867 2710.33 1031 2778 1299.33 2778 1672 2778 2020 2708 2278.33 2568 2447 2428.67 2615.67 2256 2700 2050 2700 1835.33 2700 1657 2617 1515 2451 1373.67 2285.67 1303 2040.67 1303 1716Z" id="Arial-BoldMT-70" transform="scale(0.015625 0.015625)"/><path d="M1981 3319 1981 2619 1381 2619 1381 1281C1381 1010.33 1386.67 852.667 1398 808 1410 763.333 1436.33 726.333 1477 697 1517.67 667.667 1567 653 1625 653 1706.33 653 1824 681.333 1978 738L2053 56C1849-31.3333 1617.67-75 1359-75 1201-75 1058.33-48.6667 931 4 804.333 57.3333 711.333 126.333 652 211 592.667 295.667 551.333 409.667 528 553 509.333 655 500 861.333 500 1172L500 2619 97 2619 97 3319 500 3319 500 3978 1381 4491 1381 3319 1981 3319Z" id="Arial-BoldMT-74" transform="scale(0.015625 0.015625)"/><path d="M106 0 106 684 1350 2113C1554 2346.33 1705 2511.67 1803 2609 1701 2603 1566.67 2599 1400 2597L228 2591 228 3319 2972 3319 2972 2697 1703 1234 1256 750C1500 764.667 1651 772 1709 772L3069 772 3069 0 106 0Z" id="Arial-BoldMT-7a" transform="scale(0.015625 0.015625)"/><path d="M3503 0 2688 0 2688 488C2552 298 2391.67 156.667 2207 64 2023-28.6667 1837.33-75 1650-75 1268.67-75 942 78.6667 670 386 398.667 693.333 263 1122 263 1672 263 2234.67 395 2662.33 659 2955 923.667 3247.67 1258.33 3394 1663 3394 2033.67 3394 2354.33 3239.67 2625 2931L2625 4581 3503 4581 3503 0ZM1159 1731C1159 1377 1208 1121 1306 963 1448 733.667 1646 619 1900 619 2102 619 2273.67 704.667 2415 876 2557 1048 2628 1305 2628 1647 2628 2028.33 2559.33 2302.67 2422 2470 2284.67 2638 2108.67 2722 1894 2722 1685.33 2722 1510.67 2639 1370 2473 1229.33 2307.67 1159 2060.33 1159 1731Z" id="Arial-BoldMT-64" transform="scale(0.015625 0.015625)"/><path d="M231 1491 1131 1578C1185.67 1276 1295.67 1054 1461 912 1626.33 770.667 1849.67 700 2131 700 2429 700 2653.33 763 2804 889 2955.33 1015 3031 1162.33 3031 1331 3031 1439.67 2999.33 1532 2936 1608 2872.67 1684 2761.67 1750 2603 1806 2495 1844 2248.33 1910.67 1863 2006 1367 2129.33 1019 2280.33 819 2459 537.667 2711.67 397 3019 397 3381 397 3614.33 463 3832.67 595 4036 727.667 4239.33 918.333 4394 1167 4500 1416.33 4606 1717 4659 2069 4659 2643.67 4659 3076.33 4533 3367 4281 3657.67 4029 3810.33 3692.67 3825 3272L2900 3231C2860.67 3466.33 2775.67 3635.67 2645 3739 2515 3842.33 2319.67 3894 2059 3894 1790.33 3894 1580 3838.67 1428 3728 1330 3657.33 1281 3562.67 1281 3444 1281 3335.33 1327 3242.67 1419 3166 1535.67 3068 1819 2965.67 2269 2859 2719 2753 3051.67 2643 3267 2529 3483 2415.67 3651.67 2260.67 3773 2064 3895 1867.33 3956 1624 3956 1334 3956 1072 3883 826.333 3737 597 3591.67 367.667 3385.67 197.333 3119 86 2852.33-25.3333 2520-81 2122-81 1542.67-81 1097.67 52.6667 787 320 477 588 291.667 978.333 231 1491Z" id="Arial-BoldMT-53" transform="scale(0.015625 0.015625)"/><path d="M459 0 459 4581 1338 4581 1338 0 459 0Z" id="Arial-BoldMT-6c" transform="scale(0.015625 0.015625)"/><path d="M3478 0 2600 0 2600 1694C2600 2052 2581.33 2283.67 2544 2389 2506.67 2494.33 2445.67 2576 2361 2634 2276.33 2692.67 2174.67 2722 2056 2722 1904 2722 1767.67 2680.33 1647 2597 1526.33 2513.67 1443.33 2403 1398 2265 1353.33 2127.67 1331 1873.67 1331 1503L1331 0 453 0 453 3319 1269 3319 1269 2831C1558.33 3206.33 1923 3394 2363 3394 2556.33 3394 2733 3359 2893 3289 3053.67 3219 3175 3129.67 3257 3021 3339.67 2913 3397 2790.33 3429 2653 3461.67 2515.67 3478 2319 3478 2063L3478 0Z" id="Arial-BoldMT-6e" transform="scale(0.015625 0.015625)"/><path d="M491 0 491 4544 1416 4544 1416 772 3716 772 3716 0 491 0Z" id="Arial-BoldMT-4c" transform="scale(0.015625 0.015625)"/><path d="M1334 4581 1334 2897C1617.33 3228.33 1956 3394 2350 3394 2552 3394 2734.33 3356.33 2897 3281 3059.67 3206.33 3182 3110.67 3264 2994 3346.67 2877.33 3403 2748 3433 2606 3463 2464.67 3478 2245 3478 1947L3478 0 2600 0 2600 1753C2600 2101 2583.33 2321.67 2550 2415 2516.67 2509 2457.67 2583.67 2373 2639 2289 2694.33 2183.33 2722 2056 2722 1910.67 2722 1780.67 2686.33 1666 2615 1551.33 2544.33 1467.33 2437.67 1414 2295 1360.67 2152.33 1334 1941.67 1334 1663L1334 0 456 0 456 4581 1334 4581Z" id="Arial-BoldMT-68" transform="scale(0.015625 0.015625)"/><path d="M1916-1347 1313-1347C993.667-865.667 750.667-365.667 584 153 417.333 671.667 334 1173.67 334 1659 334 2261.67 437.333 2831.67 644 3369 823.333 3835.67 1050.33 4265.67 1325 4659L1925 4659C1639.67 4028.33 1443.33 3491.33 1336 3048 1228.67 2605.33 1175 2136.33 1175 1641 1175 1299 1206.67 948.667 1270 590 1334 232 1421-108.333 1531-431 1604.33-643.667 1732.67-949 1916-1347Z" id="Arial-BoldMT-28" transform="scale(0.015625 0.015625)"/><path d="M216-1347C388.667-976.333 510.333-692 581-494 652.333-296 718-68 778 190 838.667 448.667 883.333 694 912 926 941.333 1158.67 956 1397 956 1641 956 2136.33 903 2605.33 797 3048 691 3491.33 495 4028.33 209 4659L806 4659C1120.67 4211.67 1365 3736.67 1539 3234 1713 2732 1800 2222.67 1800 1706 1800 1270.67 1731.33 804 1594 306 1437.33-252 1180-803 822-1347L216-1347Z" id="Arial-BoldMT-29" transform="scale(0.015625 0.015625)"/></defs><use width="100%" height="100%" xlink:href="#Arial-BoldMT-4f"></use><use width="100%" height="100%" xlink:href="#Arial-BoldMT-70" transform="translate(77.7832 0)"></use><use width="100%" height="100%" xlink:href="#Arial-BoldMT-74" transform="translate(138.867 0)"></use><use width="100%" height="100%" xlink:href="#Arial-BoldMT-69" transform="translate(172.168 0)"></use><use width="100%" height="100%" xlink:href="#Arial-BoldMT-6d" transform="translate(199.951 0)"></use><use width="100%" height="100%" xlink:href="#Arial-BoldMT-69" transform="translate(288.867 0)"></use><use width="100%" height="100%" xlink:href="#Arial-BoldMT-7a" transform="translate(316.65 0)"></use><use width="100%" height="100%" xlink:href="#Arial-BoldMT-65" transform="translate(366.65 0)"></use><use width="100%" height="100%" xlink:href="#Arial-BoldMT-64" transform="translate(422.266 0)"></use><use width="100%" height="100%" xlink:href="#Arial-BoldMT-20" transform="translate(483.35 0)"></use><use width="100%" height="100%" xlink:href="#Arial-BoldMT-53" transform="translate(511.133 0)"></use><use width="100%" height="100%" xlink:href="#Arial-BoldMT-6f" transform="translate(577.832 0)"></use><use width="100%" height="100%" xlink:href="#Arial-BoldMT-6c" transform="translate(638.916 0)"></use><use width="100%" height="100%" xlink:href="#Arial-BoldMT-75" transform="translate(666.699 0)"></use><use width="100%" height="100%" xlink:href="#Arial-BoldMT-74" transform="translate(727.783 0)"></use><use width="100%" height="100%" xlink:href="#Arial-BoldMT-69" transform="translate(761.084 0)"></use><use width="100%" height="100%" xlink:href="#Arial-BoldMT-6f" transform="translate(788.867 0)"></use><use width="100%" height="100%" xlink:href="#Arial-BoldMT-6e" transform="translate(849.951 0)"></use><use width="100%" height="100%" xlink:href="#Arial-BoldMT-20" transform="translate(911.035 0)"></use><use width="100%" height="100%" xlink:href="#Arial-BoldMT-4c" transform="translate(938.818 0)"></use><use width="100%" height="100%" xlink:href="#Arial-BoldMT-65" transform="translate(999.902 0)"></use><use width="100%" height="100%" xlink:href="#Arial-BoldMT-6e" transform="translate(1055.52 0)"></use><use width="100%" height="100%" xlink:href="#Arial-BoldMT-67" transform="translate(1116.6 0)"></use><use width="100%" height="100%" xlink:href="#Arial-BoldMT-74" transform="translate(1177.69 0)"></use><use width="100%" height="100%" xlink:href="#Arial-BoldMT-68" transform="translate(1210.99 0)"></use><use width="100%" height="100%" xlink:href="#Arial-BoldMT-20" transform="translate(1272.07 0)"></use><use width="100%" height="100%" xlink:href="#Arial-BoldMT-28" transform="translate(1299.85 0)"></use><use width="100%" height="100%" xlink:href="#Arial-BoldMT-53" transform="translate(1333.15 0)"></use><use width="100%" height="100%" xlink:href="#Arial-BoldMT-74" transform="translate(1399.85 0)"></use><use width="100%" height="100%" xlink:href="#Arial-BoldMT-65" transform="translate(1433.15 0)"></use><use width="100%" height="100%" xlink:href="#Arial-BoldMT-70" transform="translate(1488.77 0)"></use><use width="100%" height="100%" xlink:href="#Arial-BoldMT-73" transform="translate(1549.85 0)"></use><use width="100%" height="100%" xlink:href="#Arial-BoldMT-29" transform="translate(1605.47 0)"></use></g></g></g><g id="PathCollection_1"><defs><path d="M0 3.87298C1.02713 3.87298 2.01232 3.4649 2.73861 2.73861 3.4649 2.01232 3.87298 1.02713 3.87298 0 3.87298-1.02713 3.4649-2.01232 2.73861-2.73861 2.01232-3.4649 1.02713-3.87298 0-3.87298-1.02713-3.87298-2.01232-3.4649-2.73861-2.73861-3.4649-2.01232-3.87298-1.02713-3.87298 0-3.87298 1.02713-3.4649 2.01232-2.73861 2.73861-2.01232 3.4649-1.02713 3.87298 0 3.87298Z" id="maa222de4e4" stroke="#4682B4" stroke-width="0.3" stroke-opacity="0.7"/></defs><g clip-path="url(#p48a4453441)"><use x="80.5393" y="350.851" width="100%" height="100%" xlink:href="#maa222de4e4" stroke="#4682B4" stroke-width="0.3" stroke-opacity="0.7" fill="#4682B4" fill-opacity="0.7"></use><use x="123.072" y="347.089" width="100%" height="100%" xlink:href="#maa222de4e4" stroke="#4682B4" stroke-width="0.3" stroke-opacity="0.7" fill="#4682B4" fill-opacity="0.7"></use><use x="165.604" y="333.159" width="100%" height="100%" xlink:href="#maa222de4e4" stroke="#4682B4" stroke-width="0.3" stroke-opacity="0.7" fill="#4682B4" fill-opacity="0.7"></use><use x="208.137" y="290.048" width="100%" height="100%" xlink:href="#maa222de4e4" stroke="#4682B4" stroke-width="0.3" stroke-opacity="0.7" fill="#4682B4" fill-opacity="0.7"></use><use x="293.202" y="269.002" width="100%" height="100%" xlink:href="#maa222de4e4" stroke="#4682B4" stroke-width="0.3" stroke-opacity="0.7" fill="#4682B4" fill-opacity="0.7"></use><use x="420.799" y="206.369" width="100%" height="100%" xlink:href="#maa222de4e4" stroke="#4682B4" stroke-width="0.3" stroke-opacity="0.7" fill="#4682B4" fill-opacity="0.7"></use><use x="505.864" y="169.766" width="100%" height="100%" xlink:href="#maa222de4e4" stroke="#4682B4" stroke-width="0.3" stroke-opacity="0.7" fill="#4682B4" fill-opacity="0.7"></use><use x="675.994" y="24.4709" width="100%" height="100%" xlink:href="#maa222de4e4" stroke="#4682B4" stroke-width="0.3" stroke-opacity="0.7" fill="#4682B4" fill-opacity="0.7"></use></g></g><g id="line2d_33"><path d="M80.5393 350.851 123.072 347.089 165.604 333.159 208.137 290.048 293.202 269.002 420.799 206.369 505.864 169.766 675.994 24.4709" stroke="#4682B4" stroke-width="1.75" stroke-dasharray="6.475 2.8" stroke-opacity="0.5" fill="none" clip-path="url(#p48a4453441)"/></g><g id="line2d_34"><path d="M80.5393 369.889 123.072 347.369 165.604 324.849 208.137 302.329 293.202 257.289 420.799 189.729 505.864 144.689 675.994 54.6095" stroke="#FF0000" stroke-width="2" stroke-dasharray="7.4 3.2" stroke-opacity="0.8" fill="none" clip-path="url(#p48a4453441)"/></g><g id="patch_3"><path d="M50.7666 387.16 50.7666 7.2" fill="none"/></g><g id="patch_4"><path d="M705.767 387.16 705.767 7.2" fill="none"/></g><g id="patch_5"><path d="M50.7666 387.16 705.767 387.16" fill="none"/></g><g id="patch_6"><path d="M50.7666 7.2 705.767 7.2" fill="none"/></g></g></g></svg>