<svg width="950.015" height="565.433" viewBox="0 0 712.511 424.074" xmlns="http://www.w3.org/2000/svg" xmlns:xlink="http://www.w3.org/1999/xlink" stroke-linejoin="round" overflow="hidden"><defs></defs><defs><clipPath id="pa43a9dc23b"><rect x="40.6812" y="7.2" width="664.63" height="379.24"/></clipPath></defs><g id="figure_1"><g id="patch_1"><path d="M0 424.074 712.511 424.074 712.511 0 0 0Z" fill="#FFFFFF"/></g><g id="axes_1"><g id="patch_2"><path d="M40.6813 386.44 705.311 386.44 705.311 7.2 40.6813 7.2Z" fill="#FFFFFF"/></g><g id="patch_3"><path d="M70.8917 386.44 77.7189 386.44 77.7189 25.259 70.8917 25.259Z" fill="#008000" clip-path="url(#pa43a9dc23b)" opacity="0.7"/></g><g id="patch_4"><path d="M113.562 386.44 120.389 386.44 120.389 44.8071 113.562 44.8071Z" fill="#008000" clip-path="url(#pa43a9dc23b)" opacity="0.7"/></g><g id="patch_5"><path d="M156.232 386.44 163.059 386.44 163.059 144.348 156.232 144.348Z" fill="#008000" clip-path="url(#pa43a9dc23b)" opacity="0.7"/></g><g id="patch_6"><path d="M198.902 386.44 205.729 386.44 205.729 146.062 198.902 146.062Z" fill="#008000" clip-path="url(#pa43a9dc23b)" opacity="0.7"/></g><g id="patch_7"><path d="M284.242 386.44 291.07 386.44 291.07 235.624 284.242 235.624Z" fill="#008000" clip-path="url(#pa43a9dc23b)" opacity="0.7"/></g><g id="patch_8"><path d="M412.253 386.44 419.08 386.44 419.08 261.456 412.253 261.456Z" fill="#008000" clip-path="url(#pa43a9dc23b)" opacity="0.7"/></g><g id="patch_9"><path d="M497.593 386.44 504.42 386.44 504.42 292.594 497.593 292.594Z" fill="#008000" clip-path="url(#pa43a9dc23b)" opacity="0.7"/></g><g id="patch_10"><path d="M668.274 386.44 675.101 386.44 675.101 284.244 668.274 284.244Z" fill="#008000" clip-path="url(#pa43a9dc23b)" opacity="0.7"/></g><g id="matplotlib.axis_1"><g id="xtick_1"><g id="line2d_1"><defs><path d="M0 0 0 3.5" id="m24578986ea" stroke="#000000" stroke-width="0.8"/></defs><g><use x="74.3053" y="386.44" width="100%" height="100%" xlink:href="#m24578986ea" stroke="#000000" stroke-width="0.8"></use></g></g><g id="text_1"><g transform="matrix(0.1 0 0 -0.1 67.9428 401.038)"><defs><path d="M794 531 1825 531 1825 4091 703 3866 703 4441 1819 4666 2450 4666 2450 531 3481 531 3481 0 794 0 794 531Z" id="DejaVuSans-31" transform="scale(0.015625 0.015625)"/><path d="M2034 4250C1709.33 4250 1465 4090 1301 3770 1137.67 3450.67 1056 2970 1056 2328 1056 1688.67 1137.67 1209 1301 889 1465 569 1709.33 409 2034 409 2361.33 409 2606.67 569 2770 889 2934 1209 3016 1688.67 3016 2328 3016 2970 2934 3450.67 2770 3770 2606.67 4090 2361.33 4250 2034 4250ZM2034 4750C2557.33 4750 2957 4543 3233 4129 3509 3715.67 3647 3115.33 3647 2328 3647 1542.67 3509 943 3233 529 2957 115.667 2557.33-91 2034-91 1511.33-91 1112 115.667 836 529 560 943 422 1542.67 422 2328 422 3115.33 560 3715.67 836 4129 1112 4543 1511.33 4750 2034 4750Z" id="DejaVuSans-30" transform="scale(0.015625 0.015625)"/></defs><use width="100%" height="100%" xlink:href="#DejaVuSans-31"></use><use width="100%" height="100%" xlink:href="#DejaVuSans-30" transform="translate(63.623 0)"></use></g></g></g><g id="xtick_2"><g id="line2d_2"><g><use x="159.646" y="386.44" width="100%" height="100%" xlink:href="#m24578986ea" stroke="#000000" stroke-width="0.8"></use></g></g><g id="text_2"><g transform="matrix(0.1 0 0 -0.1 153.283 401.038)"><defs><path d="M1228 531 3431 531 3431 0 469 0 469 531C708.333 779 1034.67 1111.67 1448 1529 1862 1947 2122 2216.67 2228 2338 2430 2564.67 2571 2756.67 2651 2914 2731.67 3071.33 2772 3226 2772 3378 2772 3626 2685 3828 2511 3984 2337 4140.67 2110.33 4219 1831 4219 1633 4219 1424 4184.67 1204 4116 984.667 4047.33 750 3943 500 3803L500 4441C754 4543 991.333 4620 1212 4672 1433.33 4724 1635.67 4750 1819 4750 2302.33 4750 2687.67 4629 2975 4387 3262.33 4145.67 3406 3823 3406 3419 3406 3227 3370 3045 3298 2873 3226.67 2701.67 3096 2499.33 2906 2266 2854 2205.33 2688.33 2030.67 2409 1742 2130.33 1453.33 1736.67 1049.67 1228 531Z" id="DejaVuSans-32" transform="scale(0.015625 0.015625)"/></defs><use width="100%" height="100%" xlink:href="#DejaVuSans-32"></use><use width="100%" height="100%" xlink:href="#DejaVuSans-30" transform="translate(63.623 0)"></use></g></g></g><g id="xtick_3"><g id="line2d_3"><g><use x="244.986" y="386.44" width="100%" height="100%" xlink:href="#m24578986ea" stroke="#000000" stroke-width="0.8"></use></g></g><g id="text_3"><g transform="matrix(0.1 0 0 -0.1 238.623 401.038)"><defs><path d="M2597 2516C2899 2451.33 3134.67 2316.67 3304 2112 3474 1908 3559 1656 3559 1356 3559 896 3400.67 539.667 3084 287 2767.33 35 2317.33-91 1734-91 1538.67-91 1337.33-71.6667 1130-33 922.667 5.66667 708.667 63.6667 488 141L488 750C662.667 648 854 571 1062 519 1270.67 467 1488.67 441 1716 441 2111.33 441 2412.67 519 2620 675 2827.33 831 2931 1058 2931 1356 2931 1631.33 2834.67 1846.33 2642 2001 2449.33 2156.33 2181.33 2234 1838 2234L1294 2234 1294 2753 1863 2753C2173 2753 2410.33 2815 2575 2939 2739.67 3063 2822 3241.67 2822 3475 2822 3714.33 2737 3898 2567 4026 2397.67 4154.67 2154.67 4219 1838 4219 1664.67 4219 1479 4200 1281 4162 1083 4124.67 865.333 4066.67 628 3988L628 4550C868 4616.67 1092.67 4666.67 1302 4700 1511.33 4733.33 1708.67 4750 1894 4750 2373.33 4750 2752.33 4641 3031 4423 3310.33 4205.67 3450 3911.67 3450 3541 3450 3282.33 3376 3064 3228 2886 3080 2708 2869.67 2584.67 2597 2516Z" id="DejaVuSans-33" transform="scale(0.015625 0.015625)"/></defs><use width="100%" height="100%" xlink:href="#DejaVuSans-33"></use><use width="100%" height="100%" xlink:href="#DejaVuSans-30" transform="translate(63.623 0)"></use></g></g></g><g id="xtick_4"><g id="line2d_4"><g><use x="330.326" y="386.44" width="100%" height="100%" xlink:href="#m24578986ea" stroke="#000000" stroke-width="0.8"></use></g></g><g id="text_4"><g transform="matrix(0.1 0 0 -0.1 323.964 401.038)"><defs><path d="M2419 4116 825 1625 2419 1625 2419 4116ZM2253 4666 3047 4666 3047 1625 3713 1625 3713 1100 3047 1100 3047 0 2419 0 2419 1100 313 1100 313 1709 2253 4666Z" id="DejaVuSans-34" transform="scale(0.015625 0.015625)"/></defs><use width="100%" height="100%" xlink:href="#DejaVuSans-34"></use><use width="100%" height="100%" xlink:href="#DejaVuSans-30" transform="translate(63.623 0)"></use></g></g></g><g id="xtick_5"><g id="line2d_5"><g><use x="415.666" y="386.44" width="100%" height="100%" xlink:href="#m24578986ea" stroke="#000000" stroke-width="0.8"></use></g></g><g id="text_5"><g transform="matrix(0.1 0 0 -0.1 409.304 401.038)"><defs><path d="M691 4666 3169 4666 3169 4134 1269 4134 1269 2991C1360.33 3022.33 1451.67 3045.67 1543 3061 1635 3076.33 1727 3084 1819 3084 2339.67 3084 2752 2941.33 3056 2656 3360.67 2370.67 3513 1984.33 3513 1497 3513 995 3356.67 604.667 3044 326 2731.33 48 2290.67-91 1722-91 1526-91 1326.33-74.3333 1123-41 920.333-7.66667 710.667 42.3333 494 109L494 744C681.333 642 875 566 1075 516 1275 466 1486.33 441 1709 441 2069.67 441 2355 535.667 2565 725 2775.67 914.333 2881 1171.67 2881 1497 2881 1821.67 2775.67 2078.67 2565 2268 2355 2458 2069.67 2553 1709 2553 1540.33 2553 1372 2534.33 1204 2497 1036.67 2459.67 865.667 2401.33 691 2322L691 4666Z" id="DejaVuSans-35" transform="scale(0.015625 0.015625)"/></defs><use width="100%" height="100%" xlink:href="#DejaVuSans-35"></use><use width="100%" height="100%" xlink:href="#DejaVuSans-30" transform="translate(63.623 0)"></use></g></g></g><g id="xtick_6"><g id="line2d_6"><g><use x="501.007" y="386.44" width="100%" height="100%" xlink:href="#m24578986ea" stroke="#000000" stroke-width="0.8"></use></g></g><g id="text_6"><g transform="matrix(0.1 0 0 -0.1 494.644 401.038)"><defs><path d="M2113 2584C1829.67 2584 1605 2487 1439 2293 1273.67 2099.67 1191 1834.33 1191 1497 1191 1161.67 1273.67 896.333 1439 701 1605 506.333 1829.67 409 2113 409 2396.33 409 2620.67 506.333 2786 701 2951.33 896.333 3034 1161.67 3034 1497 3034 1834.33 2951.33 2099.67 2786 2293 2620.67 2487 2396.33 2584 2113 2584ZM3366 4563 3366 3988C3207.33 4062.67 3047.33 4119.67 2886 4159 2724.67 4199 2564.67 4219 2406 4219 1989.33 4219 1671 4078.33 1451 3797 1231.67 3515.67 1106.33 3090.67 1075 2522 1197.67 2703.33 1351.67 2842.33 1537 2939 1723 3035.67 1927.33 3084 2150 3084 2618.67 3084 2989 2941.67 3261 2657 3533 2373 3669 1986.33 3669 1497 3669 1017.67 3527.33 633 3244 343 2960.67 53.6667 2583.67-91 2113-91 1573-91 1160.33 115.667 875 529 589.667 943 447 1542.67 447 2328 447 3065.33 622 3653.33 972 4092 1322 4530.67 1791.67 4750 2381 4750 2539.67 4750 2699.67 4734.33 2861 4703 3022.33 4671.67 3190.67 4625 3366 4563Z" id="DejaVuSans-36" transform="scale(0.015625 0.015625)"/></defs><use width="100%" height="100%" xlink:href="#DejaVuSans-36"></use><use width="100%" height="100%" xlink:href="#DejaVuSans-30" transform="translate(63.623 0)"></use></g></g></g><g id="xtick_7"><g id="line2d_7"><g><use x="586.347" y="386.44" width="100%" height="100%" xlink:href="#m24578986ea" stroke="#000000" stroke-width="0.8"></use></g></g><g id="text_7"><g transform="matrix(0.1 0 0 -0.1 579.984 401.038)"><defs><path d="M525 4666 3525 4666 3525 4397 1831 0 1172 0 2766 4134 525 4134 525 4666Z" id="DejaVuSans-37" transform="scale(0.015625 0.015625)"/></defs><use width="100%" height="100%" xlink:href="#DejaVuSans-37"></use><use width="100%" height="100%" xlink:href="#DejaVuSans-30" transform="translate(63.623 0)"></use></g></g></g><g id="xtick_8"><g id="line2d_8"><g><use x="671.687" y="386.44" width="100%" height="100%" xlink:href="#m24578986ea" stroke="#000000" stroke-width="0.8"></use></g></g><g id="text_8"><g transform="matrix(0.1 0 0 -0.1 665.325 401.038)"><defs><path d="M2034 2216C1734 2216 1498 2135.67 1326 1975 1154.67 1814.33 1069 1593.67 1069 1313 1069 1031.67 1154.67 810.667 1326 650 1498 489.333 1734 409 2034 409 2334 409 2570.33 489.667 2743 651 2916.33 813 3003 1033.67 3003 1313 3003 1593.67 2917 1814.33 2745 1975 2573.67 2135.67 2336.67 2216 2034 2216ZM1403 2484C1132.33 2550.67 921.333 2676.67 770 2862 619.333 3048 544 3274.33 544 3541 544 3913.67 676.667 4208.33 942 4425 1208 4641.67 1572 4750 2034 4750 2498.67 4750 2863.33 4641.67 3128 4425 3392.67 4208.33 3525 3913.67 3525 3541 3525 3274.33 3449.33 3048 3298 2862 3147.33 2676.67 2937.67 2550.67 2669 2484 2973 2413.33 3209.67 2274.67 3379 2068 3549 1862 3634 1610.33 3634 1313 3634 860.333 3496 513 3220 271 2944 29.6667 2548.67-91 2034-91 1520-91 1124.67 29.6667 848 271 572 513 434 860.333 434 1313 434 1610.33 519.333 1862 690 2068 861.333 2274.67 1099 2413.33 1403 2484ZM1172 3481C1172 3239.67 1247.33 3051.33 1398 2916 1549.33 2780.67 1761.33 2713 2034 2713 2305.33 2713 2517.33 2780.67 2670 2916 2823.33 3051.33 2900 3239.67 2900 3481 2900 3723 2823.33 3911.67 2670 4047 2517.33 4182.33 2305.33 4250 2034 4250 1761.33 4250 1549.33 4182.33 1398 4047 1247.33 3911.67 1172 3723 1172 3481Z" id="DejaVuSans-38" transform="scale(0.015625 0.015625)"/></defs><use width="100%" height="100%" xlink:href="#DejaVuSans-38"></use><use width="100%" height="100%" xlink:href="#DejaVuSans-30" transform="translate(63.623 0)"></use></g></g></g><g id="text_9"><g transform="matrix(0.1 0 0 -0.1 331.386 414.717)"><defs><path d="M588 4666 1931 4666 3628 1466 3628 4666 4769 4666 4769 0 3425 0 1728 3200 1728 0 588 0 588 4666Z" id="DejaVuSans-Bold-4e" transform="scale(0.015625 0.015625)"/><path d="M500 1363 500 3500 1625 3500 1625 3150C1625 2960.67 1624 2722.67 1622 2436 1620 2149.33 1619 1958.33 1619 1863 1619 1581.67 1626.33 1379 1641 1255 1655.67 1131 1680.67 1040.67 1716 984 1761.33 911.333 1821 855 1895 815 1969 775.667 2054 756 2150 756 2383.33 756 2566.67 845.667 2700 1025 2833.33 1204.33 2900 1453.33 2900 1772L2900 3500 4019 3500 4019 0 2900 0 2900 506C2731.33 302 2552.67 151.333 2364 54 2175.33-42.6667 1967.67-91 1741-91 1336.33-91 1028.33 33 817 281 605.667 529 500 889.667 500 1363Z" id="DejaVuSans-Bold-75" transform="scale(0.015625 0.015625)"/><path d="M3781 2919C3923 3135.67 4091.33 3300.67 4286 3414 4480.67 3527.33 4694.67 3584 4928 3584 5330 3584 5636.33 3460 5847 3212 6057.67 2964.67 6163 2604.33 6163 2131L6163 0 5038 0 5038 1825C5040 1852.33 5041.33 1880.33 5042 1909 5043.33 1938.33 5044 1980 5044 2034 5044 2282 5007.33 2461.67 4934 2573 4861.33 2685 4743.67 2741 4581 2741 4369 2741 4205 2653.33 4089 2478 3973.67 2303.33 3913.67 2050.33 3909 1719L3909 0 2784 0 2784 1825C2784 2212.33 2750.67 2461.67 2684 2573 2617.33 2685 2498.67 2741 2328 2741 2113.33 2741 1947.67 2653 1831 2477 1714.33 2301 1656 2049.33 1656 1722L1656 0 531 0 531 3500 1656 3500 1656 2988C1794 3185.33 1952 3334 2130 3434 2308 3534 2504.33 3584 2719 3584 2960.33 3584 3173.67 3525.67 3359 3409 3545 3292.33 3685.67 3129 3781 2919Z" id="DejaVuSans-Bold-6d" transform="scale(0.015625 0.015625)"/><path d="M2400 722C2639.33 722 2822 809.333 2948 984 3074.67 1159.33 3138 1413.67 3138 1747 3138 2080.33 3074.67 2334.33 2948 2509 2822 2684.33 2639.33 2772 2400 2772 2160.67 2772 1976.67 2684 1848 2508 1720 2332 1656 2078.33 1656 1747 1656 1415.67 1720 1162 1848 986 1976.67 810 2160.67 722 2400 722ZM1656 2988C1810.67 3192 1981.67 3342.33 2169 3439 2356.33 3535.67 2572 3584 2816 3584 3247.33 3584 3601.33 3412.67 3878 3070 4155.33 2727.33 4294 2286.33 4294 1747 4294 1207.67 4155.33 766.333 3878 423 3601.33 80.3333 3247.33-91 2816-91 2572-91 2356.33-42.6667 2169 54 1981.67 151.333 1810.67 302 1656 506L1656 0 538 0 538 4863 1656 4863 1656 2988Z" id="DejaVuSans-Bold-62" transform="scale(0.015625 0.015625)"/><path d="M4031 1759 4031 1441 1416 1441C1442.67 1178.33 1537.33 981.333 1700 850 1862.67 718.667 2089.67 653 2381 653 2616.33 653 2857.33 688 3104 758 3351.33 828 3605.33 933.667 3866 1075L3866 213C3601.33 113 3336.67 37.3333 3072-14 2807.33-65.3333 2542.67-91 2278-91 1644.67-91 1152.33 70 801 392 450.333 714 275 1165.67 275 1747 275 2317.67 447.333 2766.33 792 3093 1136.67 3420.33 1611.33 3584 2216 3584 2766 3584 3206 3418.33 3536 3087 3866 2756.33 4031 2313.67 4031 1759ZM2881 2131C2881 2343.67 2819 2515 2695 2645 2571 2775.67 2409 2841 2209 2841 1992.33 2841 1816.33 2780 1681 2658 1545.67 2536 1461.33 2360.33 1428 2131L2881 2131Z" id="DejaVuSans-Bold-65" transform="scale(0.015625 0.015625)"/><path d="M3138 2547C3040 2593 2942.33 2626.67 2845 2648 2748.33 2670 2651 2681 2553 2681 2265.67 2681 2044.33 2588.67 1889 2404 1733.67 2220 1656 1956.33 1656 1613L1656 0 538 0 538 3500 1656 3500 1656 2925C1800 3154.33 1965 3321.33 2151 3426 2337.67 3531.33 2561.33 3584 2822 3584 2859.33 3584 2899.67 3582.33 2943 3579 2987 3576.33 3050.67 3569.67 3134 3559L3138 2547Z" id="DejaVuSans-Bold-72" transform="scale(0.015625 0.015625)"/><path d="" id="DejaVuSans-Bold-20" transform="scale(0.015625 0.015625)"/><path d="M2203 2784C1955 2784 1766 2695 1636 2517 1506 2339 1441 2082.33 1441 1747 1441 1411.67 1506 1154.67 1636 976 1766 798 1955 709 2203 709 2447 709 2633.33 798 2762 976 2891.33 1154.67 2956 1411.67 2956 1747 2956 2082.33 2891.33 2339 2762 2517 2633.33 2695 2447 2784 2203 2784ZM2203 3584C2805 3584 3275.33 3421.33 3614 3096 3952.67 2771.33 4122 2321.67 4122 1747 4122 1171.67 3952.67 721.333 3614 396 3275.33 71.3333 2805-91 2203-91 1599-91 1126.67 71.3333 786 396 445.333 721.333 275 1171.67 275 1747 275 2321.67 445.333 2771.33 786 3096 1126.67 3421.33 1599 3584 2203 3584Z" id="DejaVuSans-Bold-6f" transform="scale(0.015625 0.015625)"/><path d="M2841 4863 2841 4128 2222 4128C2063.33 4128 1952.67 4099.33 1890 4042 1828 3984.67 1797 3885.33 1797 3744L1797 3500 2753 3500 2753 2700 1797 2700 1797 0 678 0 678 2700 122 2700 122 3500 678 3500 678 3744C678 4125.33 784.333 4407 997 4589 1209.67 4771.67 1538.67 4863 1984 4863L2841 4863Z" id="DejaVuSans-Bold-66" transform="scale(0.015625 0.015625)"/><path d="M588 4666 1791 4666 1791 453C1791-128.333 1633-562.667 1317-850 1001.67-1137.33 524-1281-116-1281L-359-1281-359-372-172-372C78-372 267-302 395-162 523.667-22.6667 588 182.333 588 453L588 4666Z" id="DejaVuSans-Bold-4a" transform="scale(0.015625 0.015625)"/><path d="M538 3500 1656 3500 1656 0 538 0 538 3500ZM538 4863 1656 4863 1656 3950 538 3950 538 4863Z" id="DejaVuSans-Bold-69" transform="scale(0.015625 0.015625)"/><path d="M2919 594C2765 390 2595 240 2409 144 2223.67 48 2009.33 0 1766 0 1338.67 0 985.333 168 706 504 427.333 840.667 288 1269.67 288 1791 288 2313.67 427.333 2742 706 3076 985.333 3410.67 1338.67 3578 1766 3578 2009.33 3578 2223.67 3530 2409 3434 2595 3338.67 2765 3187.67 2919 2981L2919 3500 4044 3500 4044 353C4044-209.667 3866.33-639.333 3511-936 3155.67-1232.67 2640.67-1381 1966-1381 1747.33-1381 1535.67-1364.33 1331-1331 1127-1297.67 922-1246.67 716-1178L716-306C911.333-418.667 1102.67-502.667 1290-558 1478-613.333 1666.67-641 1856-641 2222.67-641 2491.33-560.667 2662-400 2833.33-239.333 2919 11.6667 2919 353L2919 594ZM2181 2772C1949.67 2772 1769.33 2686.33 1640 2515 1511.33 2344.33 1447 2103 1447 1791 1447 1469.67 1509.33 1226.33 1634 1061 1759.33 895.667 1941.67 813 2181 813 2414.33 813 2595.67 898.333 2725 1069 2854.33 1239.67 2919 1480.33 2919 1791 2919 2103 2854.33 2344.33 2725 2515 2595.67 2686.33 2414.33 2772 2181 2772Z" id="DejaVuSans-Bold-67" transform="scale(0.015625 0.015625)"/><path d="M3272 3391 3272 2541C3032.67 2641 2801.33 2716 2578 2766 2355.33 2816 2145 2841 1947 2841 1734.33 2841 1576.33 2814.33 1473 2761 1370.33 2707.67 1319 2626 1319 2516 1319 2426 1358 2357 1436 2309 1514 2261.67 1654 2226.33 1856 2203L2053 2175C2626.33 2102.33 3011.67 1982.67 3209 1816 3407 1649.33 3506 1387.67 3506 1031 3506 658.333 3368.33 378 3093 190 2818.33 2.66667 2408.33-91 1863-91 1631.67-91 1392.33-72.6667 1145-36 898.333 0.666667 644.667 55.3333 384 128L384 978C607.333 870 836 788.667 1070 734 1304.67 680 1542.67 653 1784 653 2003.33 653 2168 683 2278 743 2388.67 803.667 2444 893.667 2444 1013 2444 1113 2406 1187.33 2330 1236 2254 1284.67 2102.33 1322.67 1875 1350L1678 1375C1180 1437.67 831 1553.33 631 1722 431 1890.67 331 2147 331 2491 331 2861.67 458 3136.33 712 3315 966.667 3494.33 1356.33 3584 1881 3584 2087.67 3584 2304.33 3568.33 2531 3537 2758.33 3506.33 3005.33 3457.67 3272 3391Z" id="DejaVuSans-Bold-73" transform="scale(0.015625 0.015625)"/></defs><use width="100%" height="100%" xlink:href="#DejaVuSans-Bold-4e"></use><use width="100%" height="100%" xlink:href="#DejaVuSans-Bold-75" transform="translate(83.6914 0)"></use><use width="100%" height="100%" xlink:href="#DejaVuSans-Bold-6d" transform="translate(154.883 0)"></use><use width="100%" height="100%" xlink:href="#DejaVuSans-Bold-62" transform="translate(259.082 0)"></use><use width="100%" height="100%" xlink:href="#DejaVuSans-Bold-65" transform="translate(330.664 0)"></use><use width="100%" height="100%" xlink:href="#DejaVuSans-Bold-72" transform="translate(398.486 0)"></use><use width="100%" height="100%" xlink:href="#DejaVuSans-Bold-20" transform="translate(447.803 0)"></use><use width="100%" height="100%" xlink:href="#DejaVuSans-Bold-6f" transform="translate(482.617 0)"></use><use width="100%" height="100%" xlink:href="#DejaVuSans-Bold-66" transform="translate(551.318 0)"></use><use width="100%" height="100%" xlink:href="#DejaVuSans-Bold-20" transform="translate(594.824 0)"></use><use width="100%" height="100%" xlink:href="#DejaVuSans-Bold-4a" transform="translate(629.639 0)"></use><use width="100%" height="100%" xlink:href="#DejaVuSans-Bold-69" transform="translate(666.846 0)"></use><use width="100%" height="100%" xlink:href="#DejaVuSans-Bold-67" transform="translate(701.123 0)"></use><use width="100%" height="100%" xlink:href="#DejaVuSans-Bold-73" transform="translate(772.705 0)"></use></g></g></g><g id="matplotlib.axis_2"><g id="ytick_1"><g id="line2d_9"><path d="M40.6813 386.44 705.311 386.44" stroke="#B0B0B0" stroke-width="0.8" stroke-linecap="square" stroke-opacity="0.3" fill="none" clip-path="url(#pa43a9dc23b)"/></g><g id="line2d_10"><defs><path d="M0 0-3.5 0" id="m82114ac846" stroke="#000000" stroke-width="0.8"/></defs><g><use x="40.6812" y="386.44" width="100%" height="100%" xlink:href="#m82114ac846" stroke="#000000" stroke-width="0.8"></use></g></g><g id="text_10"><g transform="matrix(0.1 0 0 -0.1 27.3188 390.239)"><use width="100%" height="100%" xlink:href="#DejaVuSans-30"></use></g></g></g><g id="ytick_2"><g id="line2d_11"><path d="M40.6813 337.966 705.311 337.966" stroke="#B0B0B0" stroke-width="0.8" stroke-linecap="square" stroke-opacity="0.3" fill="none" clip-path="url(#pa43a9dc23b)"/></g><g id="line2d_12"><g><use x="40.6812" y="337.966" width="100%" height="100%" xlink:href="#m82114ac846" stroke="#000000" stroke-width="0.8"></use></g></g><g id="text_11"><g transform="matrix(0.1 0 0 -0.1 20.9563 341.765)"><use width="100%" height="100%" xlink:href="#DejaVuSans-31"></use><use width="100%" height="100%" xlink:href="#DejaVuSans-30" transform="translate(63.623 0)"></use></g></g></g><g id="ytick_3"><g id="line2d_13"><path d="M40.6813 289.491 705.311 289.491" stroke="#B0B0B0" stroke-width="0.8" stroke-linecap="square" stroke-opacity="0.3" fill="none" clip-path="url(#pa43a9dc23b)"/></g><g id="line2d_14"><g><use x="40.6812" y="289.491" width="100%" height="100%" xlink:href="#m82114ac846" stroke="#000000" stroke-width="0.8"></use></g></g><g id="text_12"><g transform="matrix(0.1 0 0 -0.1 20.9563 293.291)"><use width="100%" height="100%" xlink:href="#DejaVuSans-32"></use><use width="100%" height="100%" xlink:href="#DejaVuSans-30" transform="translate(63.623 0)"></use></g></g></g><g id="ytick_4"><g id="line2d_15"><path d="M40.6813 241.017 705.311 241.017" stroke="#B0B0B0" stroke-width="0.8" stroke-linecap="square" stroke-opacity="0.3" fill="none" clip-path="url(#pa43a9dc23b)"/></g><g id="line2d_16"><g><use x="40.6812" y="241.017" width="100%" height="100%" xlink:href="#m82114ac846" stroke="#000000" stroke-width="0.8"></use></g></g><g id="text_13"><g transform="matrix(0.1 0 0 -0.1 20.9563 244.816)"><use width="100%" height="100%" xlink:href="#DejaVuSans-33"></use><use width="100%" height="100%" xlink:href="#DejaVuSans-30" transform="translate(63.623 0)"></use></g></g></g><g id="ytick_5"><g id="line2d_17"><path d="M40.6813 192.543 705.311 192.543" stroke="#B0B0B0" stroke-width="0.8" stroke-linecap="square" stroke-opacity="0.3" fill="none" clip-path="url(#pa43a9dc23b)"/></g><g id="line2d_18"><g><use x="40.6812" y="192.543" width="100%" height="100%" xlink:href="#m82114ac846" stroke="#000000" stroke-width="0.8"></use></g></g><g id="text_14"><g transform="matrix(0.1 0 0 -0.1 20.9563 196.342)"><use width="100%" height="100%" xlink:href="#DejaVuSans-34"></use><use width="100%" height="100%" xlink:href="#DejaVuSans-30" transform="translate(63.623 0)"></use></g></g></g><g id="ytick_6"><g id="line2d_19"><path d="M40.6813 144.069 705.311 144.069" stroke="#B0B0B0" stroke-width="0.8" stroke-linecap="square" stroke-opacity="0.3" fill="none" clip-path="url(#pa43a9dc23b)"/></g><g id="line2d_20"><g><use x="40.6812" y="144.069" width="100%" height="100%" xlink:href="#m82114ac846" stroke="#000000" stroke-width="0.8"></use></g></g><g id="text_15"><g transform="matrix(0.1 0 0 -0.1 20.9563 147.868)"><use width="100%" height="100%" xlink:href="#DejaVuSans-35"></use><use width="100%" height="100%" xlink:href="#DejaVuSans-30" transform="translate(63.623 0)"></use></g></g></g><g id="ytick_7"><g id="line2d_21"><path d="M40.6813 95.5943 705.311 95.5943" stroke="#B0B0B0" stroke-width="0.8" stroke-linecap="square" stroke-opacity="0.3" fill="none" clip-path="url(#pa43a9dc23b)"/></g><g id="line2d_22"><g><use x="40.6812" y="95.5943" width="100%" height="100%" xlink:href="#m82114ac846" stroke="#000000" stroke-width="0.8"></use></g></g><g id="text_16"><g transform="matrix(0.1 0 0 -0.1 20.9563 99.3935)"><use width="100%" height="100%" xlink:href="#DejaVuSans-36"></use><use width="100%" height="100%" xlink:href="#DejaVuSans-30" transform="translate(63.623 0)"></use></g></g></g><g id="ytick_8"><g id="line2d_23"><path d="M40.6813 47.12 705.311 47.12" stroke="#B0B0B0" stroke-width="0.8" stroke-linecap="square" stroke-opacity="0.3" fill="none" clip-path="url(#pa43a9dc23b)"/></g><g id="line2d_24"><g><use x="40.6812" y="47.12" width="100%" height="100%" xlink:href="#m82114ac846" stroke="#000000" stroke-width="0.8"></use></g></g><g id="text_17"><g transform="matrix(0.1 0 0 -0.1 20.9563 50.9192)"><use width="100%" height="100%" xlink:href="#DejaVuSans-37"></use><use width="100%" height="100%" xlink:href="#DejaVuSans-30" transform="translate(63.623 0)"></use></g></g></g><g id="text_18"><g transform="matrix(6.12323e-18 -0.1 -0.1 -6.12323e-18 14.7984 273.454)"><defs><path d="M2719 3878C2352.33 3878 2068 3742.67 1866 3472 1664 3201.33 1563 2820 1563 2328 1563 1838.67 1664 1458.33 1866 1187 2068 916.333 2352.33 781 2719 781 3087.67 781 3373 916.333 3575 1187 3777 1458.33 3878 1838.67 3878 2328 3878 2820 3777 3201.33 3575 3472 3373 3742.67 3087.67 3878 2719 3878ZM2719 4750C3469 4750 4056.33 4535.33 4481 4106 4906.33 3677.33 5119 3084.67 5119 2328 5119 1574 4906.33 982.333 4481 553 4056.33 123.667 3469-91 2719-91 1971-91 1384 123.667 958 553 532 982.333 319 1574 319 2328 319 3084.67 532 3677.33 958 4106 1384 4535.33 1971 4750 2719 4750Z" id="DejaVuSans-Bold-4f" transform="scale(0.015625 0.015625)"/><path d="M1656 506 1656-1331 538-1331 538 3500 1656 3500 1656 2988C1810.67 3192 1981.67 3342.33 2169 3439 2356.33 3535.67 2572 3584 2816 3584 3247.33 3584 3601.33 3412.67 3878 3070 4155.33 2727.33 4294 2286.33 4294 1747 4294 1207.67 4155.33 766.333 3878 423 3601.33 80.3333 3247.33-91 2816-91 2572-91 2356.33-42.6667 2169 54 1981.67 151.333 1810.67 302 1656 506ZM2400 2772C2160.67 2772 1976.67 2684 1848 2508 1720 2332 1656 2078.33 1656 1747 1656 1415.67 1720 1162 1848 986 1976.67 810 2160.67 722 2400 722 2639.33 722 2822 809.333 2948 984 3074.67 1159.33 3138 1413.67 3138 1747 3138 2080.33 3074.67 2334.33 2948 2509 2822 2684.33 2639.33 2772 2400 2772Z" id="DejaVuSans-Bold-70" transform="scale(0.015625 0.015625)"/><path d="M1759 4494 1759 3500 2913 3500 2913 2700 1759 2700 1759 1216C1759 1053.33 1791.33 943.333 1856 886 1920.67 828.667 2049 800 2241 800L2816 800 2816 0 1856 0C1414.67 0 1101.67 92 917 276 733 460.667 641 774 641 1216L641 2700 84 2700 84 3500 641 3500 641 4494 1759 4494Z" id="DejaVuSans-Bold-74" transform="scale(0.015625 0.015625)"/><path d="M366 3500 3419 3500 3419 2719 1575 800 3419 800 3419 0 288 0 288 781 2131 2700 366 2700 366 3500Z" id="DejaVuSans-Bold-7a" transform="scale(0.015625 0.015625)"/><path d="M2106 1575C1872.67 1575 1697 1535.33 1579 1456 1461.67 1377.33 1403 1260.67 1403 1106 1403 964.667 1450.33 853.667 1545 773 1640.33 693 1772.33 653 1941 653 2151 653 2328 728.333 2472 879 2616 1030.33 2688 1219.67 2688 1447L2688 1575 2106 1575ZM3816 1997 3816 0 2688 0 2688 519C2538 306.333 2369 151.333 2181 54 1993.67-42.6667 1765.67-91 1497-91 1134.33-91 840 14.6667 614 226 388 438 275 712.667 275 1050 275 1460.67 416 1761.67 698 1953 980.667 2145 1424 2241 2028 2241L2688 2241 2688 2328C2688 2505.33 2618 2635 2478 2717 2338.67 2799.67 2121 2841 1825 2841 1585.67 2841 1362.67 2817 1156 2769 950 2721 758.333 2649 581 2553L581 3406C821 3464.67 1061.67 3509 1303 3539 1545 3569 1786.67 3584 2028 3584 2659.33 3584 3115 3459.67 3395 3211 3675.67 2962.33 3816 2557.67 3816 1997Z" id="DejaVuSans-Bold-61" transform="scale(0.015625 0.015625)"/><path d="M4056 2131 4056 0 2931 0 2931 347 2931 1631C2931 1933 2924.33 2141.33 2911 2256 2897.67 2370.67 2874.33 2455 2841 2509 2797 2582.33 2737.33 2639.33 2662 2680 2587.33 2720.67 2502 2741 2406 2741 2172.67 2741 1989.33 2650.67 1856 2470 1722.67 2290 1656 2040.67 1656 1722L1656 0 538 0 538 3500 1656 3500 1656 2988C1824.67 3192 2003.67 3342.33 2193 3439 2383 3535.67 2592.67 3584 2822 3584 3226 3584 3532.67 3460 3742 3212 3951.33 2964.67 4056 2604.33 4056 2131Z" id="DejaVuSans-Bold-6e" transform="scale(0.015625 0.015625)"/><path d="M588 4666 3834 4666 3834 3756 1791 3756 1791 2888 3713 2888 3713 1978 1791 1978 1791 909 3903 909 3903 0 588 0 588 4666Z" id="DejaVuSans-Bold-45" transform="scale(0.015625 0.015625)"/><path d="M3366 3391 3366 2478C3214 2582 3061.33 2659 2908 2709 2754.67 2759 2595.67 2784 2431 2784 2119 2784 1876 2693 1702 2511 1528 2329 1441 2074.33 1441 1747 1441 1419.67 1528 1164.67 1702 982 1876 800 2119 709 2431 709 2606.33 709 2772.67 735 2930 787 3087.33 839.667 3232.67 917 3366 1019L3366 103C3190.67 38.3333 3013-10 2833-42 2653-74.6667 2472.33-91 2291-91 1659.67-91 1165.67 71 809 395 453 719 275 1169.67 275 1747 275 2324.33 453 2774.67 809 3098 1165.67 3422 1659.67 3584 2291 3584 2474.33 3584 2655 3568 2833 3536 3011 3504 3188.67 3455.67 3366 3391Z" id="DejaVuSans-Bold-63" transform="scale(0.015625 0.015625)"/><path d="M78 3500 1197 3500 2138 1125 2938 3500 4056 3500 2584-331C2436.67-721 2264.33-993.333 2067-1148 1870.33-1303.33 1610.67-1381 1288-1381L641-1381 641-647 991-647C1180.33-647 1318-616.667 1404-556 1490.67-496 1558-387.667 1606-231L1638-134 78 3500Z" id="DejaVuSans-Bold-79" transform="scale(0.015625 0.015625)"/><path d="M2413-844 1484-844C1165.33-329.333 930 159.667 778 623 626 1087 550 1547 550 2003 550 2459.67 626.333 2921.67 779 3389 932.333 3857 1167.33 4346 1484 4856L2413 4856C2146.33 4362.67 1946.33 3880 1813 3408 1679.67 2936 1613 2469.67 1613 2009 1613 1549 1679 1082.33 1811 609 1943 136.333 2143.67-348 2413-844Z" id="DejaVuSans-Bold-28" transform="scale(0.015625 0.015625)"/><path d="M4959 1925C4811.67 1925 4697.33 1861 4616 1733 4534.67 1605 4494 1422 4494 1184 4494 944.667 4534 761 4614 633 4694 505 4809 441 4959 441 5109 441 5223.67 505 5303 633 5382.33 761 5422 944.667 5422 1184 5422 1422 5381.67 1605 5301 1733 5221 1861 5107 1925 4959 1925ZM4959 2450C5347 2450 5652.33 2337.33 5875 2112 6097.67 1887.33 6209 1578 6209 1184 6209 790.667 6097.67 479.667 5875 251 5652.33 23 5347-91 4959-91 4571.67-91 4266 23 4042 251 3818 479.667 3706 790.667 3706 1184 3706 1576 3818 1885 4042 2111 4266 2337 4571.67 2450 4959 2450ZM2094-91 1403-91 4319 4750 5013 4750 2094-91ZM1453 4750C1840.33 4750 2145 4637 2367 4411 2589 4185 2700 3875 2700 3481 2700 3087.67 2589 2777.33 2367 2550 2145 2322.67 1840.33 2209 1453 2209 1065.67 2209 761 2322.67 539 2550 317 2777.33 206 3087.67 206 3481 206 3875 317 4185 539 4411 761 4637 1065.67 4750 1453 4750ZM1453 4225C1303 4225 1187.33 4160.33 1106 4031 1024.67 3902.33 984 3719 984 3481 984 3241.67 1024.67 3056.67 1106 2926 1187.33 2796 1303 2731 1453 2731 1603 2731 1718 2796 1798 2926 1878.67 3056.67 1919 3241.67 1919 3481 1919 3719 1878.33 3902.33 1797 4031 1715.67 4160.33 1601 4225 1453 4225Z" id="DejaVuSans-Bold-25" transform="scale(0.015625 0.015625)"/><path d="M513-844C779.667-348 979.667 136.333 1113 609 1246.33 1082.33 1313 1549 1313 2009 1313 2469.67 1246.33 2936 1113 3408 979.667 3880 779.667 4362.67 513 4856L1441 4856C1757.67 4346 1992.33 3857 2145 3389 2298.33 2921.67 2375 2459.67 2375 2003 2375 1547 2299 1087 2147 623 1995 159.667 1759.67-329.333 1441-844L513-844Z" id="DejaVuSans-Bold-29" transform="scale(0.015625 0.015625)"/></defs><use width="100%" height="100%" xlink:href="#DejaVuSans-Bold-4f"></use><use width="100%" height="100%" xlink:href="#DejaVuSans-Bold-70" transform="translate(85.0098 0)"></use><use width="100%" height="100%" xlink:href="#DejaVuSans-Bold-74" transform="translate(156.592 0)"></use><use width="100%" height="100%" xlink:href="#DejaVuSans-Bold-69" transform="translate(204.395 0)"></use><use width="100%" height="100%" xlink:href="#DejaVuSans-Bold-6d" transform="translate(238.672 0)"></use><use width="100%" height="100%" xlink:href="#DejaVuSans-Bold-69" transform="translate(342.871 0)"></use><use width="100%" height="100%" xlink:href="#DejaVuSans-Bold-7a" transform="translate(377.148 0)"></use><use width="100%" height="100%" xlink:href="#DejaVuSans-Bold-61" transform="translate(435.352 0)"></use><use width="100%" height="100%" xlink:href="#DejaVuSans-Bold-74" transform="translate(502.832 0)"></use><use width="100%" height="100%" xlink:href="#DejaVuSans-Bold-69" transform="translate(550.635 0)"></use><use width="100%" height="100%" xlink:href="#DejaVuSans-Bold-6f" transform="translate(584.912 0)"></use><use width="100%" height="100%" xlink:href="#DejaVuSans-Bold-6e" transform="translate(653.613 0)"></use><use width="100%" height="100%" xlink:href="#DejaVuSans-Bold-20" transform="translate(724.805 0)"></use><use width="100%" height="100%" xlink:href="#DejaVuSans-Bold-45" transform="translate(759.619 0)"></use><use width="100%" height="100%" xlink:href="#DejaVuSans-Bold-66" transform="translate(827.93 0)"></use><use width="100%" height="100%" xlink:href="#DejaVuSans-Bold-66" transform="translate(871.436 0)"></use><use width="100%" height="100%" xlink:href="#DejaVuSans-Bold-69" transform="translate(914.941 0)"></use><use width="100%" height="100%" xlink:href="#DejaVuSans-Bold-63" transform="translate(949.219 0)"></use><use width="100%" height="100%" xlink:href="#DejaVuSans-Bold-69" transform="translate(1008.5 0)"></use><use width="100%" height="100%" xlink:href="#DejaVuSans-Bold-65" transform="translate(1042.77 0)"></use><use width="100%" height="100%" xlink:href="#DejaVuSans-Bold-6e" transform="translate(1110.6 0)"></use><use width="100%" height="100%" xlink:href="#DejaVuSans-Bold-63" transform="translate(1181.79 0)"></use><use width="100%" height="100%" xlink:href="#DejaVuSans-Bold-79" transform="translate(1241.06 0)"></use><use width="100%" height="100%" xlink:href="#DejaVuSans-Bold-20" transform="translate(1306.25 0)"></use><use width="100%" height="100%" xlink:href="#DejaVuSans-Bold-28" transform="translate(1341.06 0)"></use><use width="100%" height="100%" xlink:href="#DejaVuSans-Bold-25" transform="translate(1386.77 0)"></use><use width="100%" height="100%" xlink:href="#DejaVuSans-Bold-29" transform="translate(1486.96 0)"></use></g></g></g><g id="patch_11"><path d="M40.6813 386.44 40.6813 7.2" stroke="#000000" stroke-width="0.8" stroke-linecap="square" stroke-linejoin="miter" fill="none"/></g><g id="patch_12"><path d="M705.311 386.44 705.311 7.2" stroke="#000000" stroke-width="0.8" stroke-linecap="square" stroke-linejoin="miter" fill="none"/></g><g id="patch_13"><path d="M40.6813 386.44 705.311 386.44" stroke="#000000" stroke-width="0.8" stroke-linecap="square" stroke-linejoin="miter" fill="none"/></g><g id="patch_14"><path d="M40.6813 7.2 705.311 7.2" stroke="#000000" stroke-width="0.8" stroke-linecap="square" stroke-linejoin="miter" fill="none"/></g><g id="text_19"><g transform="matrix(0.1 0 0 -0.1 56.9592 20.7556)"><defs><path d="M428 4666 3944 4666 3944 3988 2125 0 953 0 2675 3781 428 3781 428 4666Z" id="DejaVuSans-Bold-37" transform="scale(0.015625 0.015625)"/><path d="M2356 3675 1038 1722 2356 1722 2356 3675ZM2156 4666 3494 4666 3494 1722 4159 1722 4159 850 3494 850 3494 0 2356 0 2356 850 288 850 288 1881 2156 4666Z" id="DejaVuSans-Bold-34" transform="scale(0.015625 0.015625)"/><path d="M653 1209 1778 1209 1778 0 653 0 653 1209Z" id="DejaVuSans-Bold-2e" transform="scale(0.015625 0.015625)"/><path d="M678 4666 3669 4666 3669 3781 1638 3781 1638 3059C1729.33 3084.33 1821.33 3103.67 1914 3117 2006.67 3131 2103 3138 2203 3138 2771.67 3138 3214.33 2995.67 3531 2711 3847.67 2426.33 4006 2030 4006 1522 4006 1018 3833.67 623 3489 337 3144.33 51.6667 2665.67-91 2053-91 1788.33-91 1526.33-65.3333 1267-14 1007.67 37.3333 750 115 494 219L494 1166C748 1020 989 910.333 1217 837 1445 764.333 1660.33 728 1863 728 2154.33 728 2383.67 799.333 2551 942 2719 1084.67 2803 1278 2803 1522 2803 1768 2719 1961.67 2551 2103 2383.67 2245 2154.33 2316 1863 2316 1689.67 2316 1505 2293.33 1309 2248 1113.67 2203.33 903.333 2134.33 678 2041L678 4666Z" id="DejaVuSans-Bold-35" transform="scale(0.015625 0.015625)"/></defs><use width="100%" height="100%" xlink:href="#DejaVuSans-Bold-37"></use><use width="100%" height="100%" xlink:href="#DejaVuSans-Bold-34" transform="translate(69.5801 0)"></use><use width="100%" height="100%" xlink:href="#DejaVuSans-Bold-2e" transform="translate(139.16 0)"></use><use width="100%" height="100%" xlink:href="#DejaVuSans-Bold-35" transform="translate(177.148 0)"></use><use width="100%" height="100%" xlink:href="#DejaVuSans-Bold-25" transform="translate(246.729 0)"></use></g></g><g id="text_20"><g transform="matrix(0.1 0 0 -0.1 99.6294 40.3037)"><defs><path d="M2944 2338C2944 2921.33 2889.33 3332 2780 3570 2670.67 3808.67 2486.67 3928 2228 3928 1970 3928 1785.67 3808.67 1675 3570 1564.33 3332 1509 2921.33 1509 2338 1509 1748 1564.33 1332 1675 1090 1785.67 848.667 1970 728 2228 728 2484.67 728 2668 848.667 2778 1090 2888.67 1332 2944 1748 2944 2338ZM4147 2328C4147 1555.33 3980.33 959 3647 539 3313.67 119 2840.67-91 2228-91 1613.33-91 1139.33 119 806 539 472.667 959 306 1555.33 306 2328 306 3103.33 472.667 3700.67 806 4120 1139.33 4540 1613.33 4750 2228 4750 2840.67 4750 3313.67 4540 3647 4120 3980.33 3700.67 4147 3103.33 4147 2328Z" id="DejaVuSans-Bold-30" transform="scale(0.015625 0.015625)"/></defs><use width="100%" height="100%" xlink:href="#DejaVuSans-Bold-37"></use><use width="100%" height="100%" xlink:href="#DejaVuSans-Bold-30" transform="translate(69.5801 0)"></use><use width="100%" height="100%" xlink:href="#DejaVuSans-Bold-2e" transform="translate(139.16 0)"></use><use width="100%" height="100%" xlink:href="#DejaVuSans-Bold-35" transform="translate(177.148 0)"></use><use width="100%" height="100%" xlink:href="#DejaVuSans-Bold-25" transform="translate(246.729 0)"></use></g></g><g id="text_21"><g transform="matrix(0.1 0 0 -0.1 142.299 139.845)"><defs><path d="M641 103 641 966C832.333 876 1015.33 808.667 1190 764 1365.33 719.333 1538.33 697 1709 697 2067.67 697 2347 796.333 2547 995 2747 1194.33 2864.67 1489.67 2900 1881 2758.67 1777 2607.67 1699 2447 1647 2286.33 1595 2112.33 1569 1925 1569 1447.67 1569 1062.67 1708 770 1986 477.333 2264 331 2630 331 3084 331 3586.67 494 3989 820 4291 1146 4593 1583 4744 2131 4744 2739.67 4744 3210.67 4538.67 3544 4128 3877.33 3718 4044 3138 4044 2388 4044 1616.67 3849 1010.67 3459 570 3069.67 129.333 2535.33-91 1856-91 1637.33-91 1428-74.6667 1228-42 1028-10 832.333 38.3333 641 103ZM2125 2350C2335.67 2350 2494 2418 2600 2554 2706 2690.67 2759 2895.67 2759 3169 2759 3439.67 2706 3643.67 2600 3781 2494 3919 2335.67 3988 2125 3988 1914.33 3988 1756 3919 1650 3781 1544 3643.67 1491 3439.67 1491 3169 1491 2895.67 1544 2690.67 1650 2554 1756 2418 1914.33 2350 2125 2350Z" id="DejaVuSans-Bold-39" transform="scale(0.015625 0.015625)"/></defs><use width="100%" height="100%" xlink:href="#DejaVuSans-Bold-34"></use><use width="100%" height="100%" xlink:href="#DejaVuSans-Bold-39" transform="translate(69.5801 0)"></use><use width="100%" height="100%" xlink:href="#DejaVuSans-Bold-2e" transform="translate(139.16 0)"></use><use width="100%" height="100%" xlink:href="#DejaVuSans-Bold-39" transform="translate(177.148 0)"></use><use width="100%" height="100%" xlink:href="#DejaVuSans-Bold-25" transform="translate(246.729 0)"></use></g></g><g id="text_22"><g transform="matrix(0.1 0 0 -0.1 184.97 141.559)"><defs><path d="M2316 2303C2105.33 2303 1947.33 2234.67 1842 2098 1736.67 1962 1684 1757.33 1684 1484 1684 1211.33 1736.67 1006.67 1842 870 1947.33 734 2105.33 666 2316 666 2528 666 2686.67 734 2792 870 2897.33 1006.67 2950 1211.33 2950 1484 2950 1757.33 2897.33 1962 2792 2098 2686.67 2234.67 2528 2303 2316 2303ZM3803 4544 3803 3681C3605 3775 3418.33 3844.33 3243 3889 3068.33 3933.67 2897.67 3956 2731 3956 2373 3956 2094 3856.33 1894 3657 1694 3458.33 1577.33 3163.33 1544 2772 1681.33 2874 1830 2950.33 1990 3001 2150.67 3052.33 2326 3078 2516 3078 2992.67 3078 3377.33 2938.33 3670 2659 3962.67 2380.33 4109 2015 4109 1563 4109 1063 3945.33 662.333 3618 361 3291.33 59.6667 2853-91 2303-91 1697-91 1227.67 113.667 895 523 563 933 397 1514 397 2266 397 3036.67 591.333 3642.33 980 4083 1368.67 4523.67 1901.33 4744 2578 4744 2792.67 4744 3001 4727.33 3203 4694 3405 4660.67 3605 4610.67 3803 4544Z" id="DejaVuSans-Bold-36" transform="scale(0.015625 0.015625)"/></defs><use width="100%" height="100%" xlink:href="#DejaVuSans-Bold-34"></use><use width="100%" height="100%" xlink:href="#DejaVuSans-Bold-39" transform="translate(69.5801 0)"></use><use width="100%" height="100%" xlink:href="#DejaVuSans-Bold-2e" transform="translate(139.16 0)"></use><use width="100%" height="100%" xlink:href="#DejaVuSans-Bold-36" transform="translate(177.148 0)"></use><use width="100%" height="100%" xlink:href="#DejaVuSans-Bold-25" transform="translate(246.729 0)"></use></g></g><g id="text_23"><g transform="matrix(0.1 0 0 -0.1 270.31 231.121)"><defs><path d="M2981 2516C3295.67 2434.67 3534.67 2293.33 3698 2092 3862 1891.33 3944 1635.67 3944 1325 3944 862.333 3766.67 510.667 3412 270 3058 29.3333 2541.67-91 1863-91 1623-91 1382.67-71.6667 1142-33 901.333 5.66667 663.333 63.6667 428 141L428 1069C653.333 956.333 876.667 871.333 1098 814 1320 756.667 1538.33 728 1753 728 2071.67 728 2316 783 2486 893 2656 1003.67 2741 1162.33 2741 1369 2741 1581.67 2654 1742.67 2480 1852 2306 1961.33 2049 2016 1709 2016L1228 2016 1228 2791 1734 2791C2036.67 2791 2261.67 2838.33 2409 2933 2557 3027.67 2631 3172 2631 3366 2631 3544.67 2559 3683 2415 3781 2271.67 3879 2068.67 3928 1806 3928 1612.67 3928 1417 3906 1219 3862 1021 3818.67 824 3754.33 628 3669L628 4550C865.333 4616.67 1100.67 4666.67 1334 4700 1567.33 4733.33 1796.67 4750 2022 4750 2628 4750 3081.33 4650.33 3382 4451 3683.33 4252.33 3834 3953 3834 3553 3834 3280.33 3762 3057 3618 2883 3474.67 2709 3262.33 2586.67 2981 2516Z" id="DejaVuSans-Bold-33" transform="scale(0.015625 0.015625)"/><path d="M750 831 1813 831 1813 3847 722 3622 722 4441 1806 4666 2950 4666 2950 831 4013 831 4013 0 750 0 750 831Z" id="DejaVuSans-Bold-31" transform="scale(0.015625 0.015625)"/></defs><use width="100%" height="100%" xlink:href="#DejaVuSans-Bold-33"></use><use width="100%" height="100%" xlink:href="#DejaVuSans-Bold-31" transform="translate(69.5801 0)"></use><use width="100%" height="100%" xlink:href="#DejaVuSans-Bold-2e" transform="translate(139.16 0)"></use><use width="100%" height="100%" xlink:href="#DejaVuSans-Bold-31" transform="translate(177.148 0)"></use><use width="100%" height="100%" xlink:href="#DejaVuSans-Bold-25" transform="translate(246.729 0)"></use></g></g><g id="text_24"><g transform="matrix(0.1 0 0 -0.1 398.32 256.952)"><defs><path d="M1844 884 3897 884 3897 0 506 0 506 884 2209 2388C2361.67 2525.33 2474.33 2659.67 2547 2791 2619.67 2922.33 2656 3058.67 2656 3200 2656 3418.67 2582.67 3594.67 2436 3728 2289.33 3861.33 2094 3928 1850 3928 1662.67 3928 1457.33 3888 1234 3808 1011.33 3728 773 3608.67 519 3450L519 4475C789.667 4564.33 1057.33 4632.33 1322 4679 1586.67 4726.33 1846 4750 2100 4750 2658.67 4750 3092.67 4627 3402 4381 3711.33 4135.67 3866 3793 3866 3353 3866 3099 3800.33 2862 3669 2642 3537.67 2422.67 3261.67 2128.33 2841 1759L1844 884Z" id="DejaVuSans-Bold-32" transform="scale(0.015625 0.015625)"/><path d="M2228 2088C2003.33 2088 1830.33 2026.33 1709 1903 1588.33 1780.33 1528 1604.33 1528 1375 1528 1145.67 1588.33 970 1709 848 1830.33 726.667 2003.33 666 2228 666 2451.33 666 2622.33 726.667 2741 848 2859.67 970 2919 1145.67 2919 1375 2919 1606.33 2859.67 1783 2741 1905 2622.33 2027 2451.33 2088 2228 2088ZM1350 2484C1066.67 2570 853 2701.33 709 2878 565.667 3055.33 494 3276.33 494 3541 494 3934.33 640.667 4234 934 4440 1228 4646.67 1659.33 4750 2228 4750 2792.67 4750 3221.67 4647.33 3515 4442 3809 4236.67 3956 3936.33 3956 3541 3956 3276.33 3883.67 3055.33 3739 2878 3594.33 2701.33 3380.33 2570 3097 2484 3413.67 2396.67 3652.67 2254.67 3814 2058 3975.33 1861.33 4056 1613 4056 1313 4056 850.333 3902.33 500.667 3595 264 3287.67 27.3333 2832-91 2228-91 1622-91 1164.33 27.3333 855 264 545.667 500.667 391 850.333 391 1313 391 1613 471.667 1861.33 633 2058 794.333 2254.67 1033.33 2396.67 1350 2484ZM1631 3419C1631 3233.67 1682.67 3091 1786 2991 1889.33 2891 2036.67 2841 2228 2841 2415.33 2841 2560 2891 2662 2991 2764.67 3091 2816 3233.67 2816 3419 2816 3604.33 2764.67 3746.33 2662 3845 2560 3944.33 2415.33 3994 2228 3994 2036.67 3994 1889.33 3944 1786 3844 1682.67 3744 1631 3602.33 1631 3419Z" id="DejaVuSans-Bold-38" transform="scale(0.015625 0.015625)"/></defs><use width="100%" height="100%" xlink:href="#DejaVuSans-Bold-32"></use><use width="100%" height="100%" xlink:href="#DejaVuSans-Bold-35" transform="translate(69.5801 0)"></use><use width="100%" height="100%" xlink:href="#DejaVuSans-Bold-2e" transform="translate(139.16 0)"></use><use width="100%" height="100%" xlink:href="#DejaVuSans-Bold-38" transform="translate(177.148 0)"></use><use width="100%" height="100%" xlink:href="#DejaVuSans-Bold-25" transform="translate(246.729 0)"></use></g></g><g id="text_25"><g transform="matrix(0.1 0 0 -0.1 483.661 288.091)"><use width="100%" height="100%" xlink:href="#DejaVuSans-Bold-31"></use><use width="100%" height="100%" xlink:href="#DejaVuSans-Bold-39" transform="translate(69.5801 0)"></use><use width="100%" height="100%" xlink:href="#DejaVuSans-Bold-2e" transform="translate(139.16 0)"></use><use width="100%" height="100%" xlink:href="#DejaVuSans-Bold-34" transform="translate(177.148 0)"></use><use width="100%" height="100%" xlink:href="#DejaVuSans-Bold-25" transform="translate(246.729 0)"></use></g></g><g id="text_26"><g transform="matrix(0.1 0 0 -0.1 654.341 279.74)"><use width="100%" height="100%" xlink:href="#DejaVuSans-Bold-32"></use><use width="100%" height="100%" xlink:href="#DejaVuSans-Bold-31" transform="translate(69.5801 0)"></use><use width="100%" height="100%" xlink:href="#DejaVuSans-Bold-2e" transform="translate(139.16 0)"></use><use width="100%" height="100%" xlink:href="#DejaVuSans-Bold-31" transform="translate(177.148 0)"></use><use width="100%" height="100%" xlink:href="#DejaVuSans-Bold-25" transform="translate(246.729 0)"></use></g></g></g></g></svg>